<svg xmlns="http://www.w3.org/2000/svg" viewBox="0 0 24 24"><path fill="#FFF" d="M12 1.7C6.3 1.7 1.7 6.3 1.7 12c0 5.7 4.6 10.3 10.3 10.3 5.7 0 10.3-4.6 10.3-10.3 0-5.7-4.6-10.3-10.3-10.3zm6.5 16.8c-1.7 1.7-4 2.7-6.5 2.7-2.6 0-4.9-1-6.5-2.7-1.7-1.7-2.7-4-2.7-6.5 0-2.6 1-4.9 2.7-6.5 1.7-1.7 4-2.7 6.5-2.7 2.6 0 4.9 1 6.5 2.7 1.7 1.7 2.7 4 2.7 6.5.1 2.6-1 4.9-2.7 6.5z"/><path fill="#FFF" d="M12 6.5C8.9 6.5 6.5 9 6.5 12c0 3.1 2.5 5.5 5.5 5.5 3.1 0 5.5-2.5 5.5-5.5 0-3.1-2.4-5.5-5.5-5.5zm3.2 8.7c-.8.8-2 1.3-3.2 1.3-1.3 0-2.4-.5-3.2-1.3-.8-.8-1.3-2-1.3-3.2 0-1.3.5-2.4 1.3-3.2.8-.8 2-1.3 3.2-1.3 1.3 0 2.4.5 3.2 1.3.8.8 1.3 2 1.3 3.2 0 1.3-.5 2.4-1.3 3.2z"/></svg>