<svg id="Camada_1" xmlns="http://www.w3.org/2000/svg" viewBox="-266 294 24 24"><style>.st0{fill:#FFFFFF;}</style><path class="st0" d="M-244 295.2v21.6h-20v-21.6h20zm-20.3-.3v22.3h20.7v-22.3h-20.7zm19.1 20.8v-19.4h-17.7v19.4h17.7zm-8.3-13.4v.4c0 .1-.1.2-.2.2h-.6c-.1 0-.2-.1-.2-.2v-.4h1zm-1-.3v-.4c0-.1.1-.2.2-.2h.6c.1 0 .2.1.2.2v.4h-1zm.2 1.2h.6c.3 0 .5-.2.5-.5v-.4h1.4c.7 0 1.3.3 1.8.7.5.5.7 1.1.7 1.8v8.1c0 1.3-1.1 2.4-2.4 2.5h-4.7c-1.3-.1-2.4-1.1-2.4-2.5v-8.1c0-.7.3-1.3.7-1.8.5-.5 1.1-.7 1.8-.7h1.4v.4c.1.2.3.5.6.5zm8.8 12.2h-5c.9-.5 1.5-1.4 1.5-2.5v-8.1c0-1.5-1.3-2.8-2.8-2.8h-1.4v-.4c0-.3-.2-.5-.5-.5h-.6c-.3 0-.5.2-.5.5v.4h-1.4c-1.5 0-2.8 1.3-2.8 2.8v8.1c0 1.1.6 2 1.5 2.5h-5v-18.8h17v18.8zm-6.4-4.3c0 .3-.3.5-.7.5-.4 0-.7-.2-.7-.5 0-.2.2-.4.4-.4.4 0 1 0 1 .4zm-.1-2c0 .3-.2.6-.5.6s-.5-.3-.5-.6v-.1c0-.3.2-.6.5-.6s.5.3.5.6v.1zm-.6.9c.6 0 1-.4 1-.9v-.1c0-.2-.1-.4-.2-.5.1-.2.2-.2.3-.2l.1-.1c0-.1-.1-.2-.2-.2s-.3.1-.4.4c-.2-.1-.4-.2-.6-.2-.6 0-1 .4-1 .9v.2c0 .3.1.5.3.7-.2.1-.3.2-.3.4s.1.3.3.4c-.2.1-.4.3-.4.6 0 .5.5.7 1.1.7.6 0 1.1-.3 1.1-.8 0-1-1.7-.5-1.7-1 0-.1.1-.1.1-.2.2-.1.4-.1.5-.1zm-3.7.5c0 .1.1.2.2.2s.2-.1.2-.2v-1.2l.4-.5 1.2 1.8c0 .1.1.1.2.1s.3-.1.3-.2v-.1l-1.3-2 1.1-1.4v-.1c0-.1-.1-.2-.3-.2 0 0-.1 0-.1.1l-1.5 1.9v-1.8c0-.1-.1-.2-.2-.2s-.2 0-.2.2v3.6z"/></svg>