<svg xmlns="http://www.w3.org/2000/svg" viewBox="0 0 24 33.4"><g fill="#FFF"><path d="M12 1.2c-5.4 0-9.8 4.4-9.8 9.8 0 4 2.5 7.5 6 9l2.5 11c.1.3.3.6.5.8.2.2.5.3.8.3.3 0 .6-.1.8-.3.2-.2.4-.4.5-.8l2.5-11c3.5-1.5 6-4.9 6-9 0-5.4-4.4-9.8-9.8-9.8zm3.2 17.9l-.2.1-2.6 11.4c-.1.2-.2.3-.2.4H11.9c-.1-.1-.2-.2-.2-.4L9.1 19.2l-.2-.1c-3.3-1.3-5.6-4.4-5.6-8.2 0-2.4 1-4.6 2.6-6.2C7.4 3.2 9.6 2.2 12 2.2c2.4 0 4.6 1 6.2 2.6 1.6 1.6 2.6 3.8 2.6 6.2 0 3.7-2.4 6.8-5.6 8.1z"/><path d="M12 5.7c-2.9 0-5.3 2.4-5.3 5.3s2.4 5.3 5.3 5.3 5.3-2.4 5.3-5.3-2.4-5.3-5.3-5.3zm3 8.3c-.8.8-1.8 1.3-3 1.3s-2.2-.5-3-1.3c-.8-.8-1.3-1.8-1.3-3S8.2 8.8 9 8c.8-.8 1.8-1.3 3-1.3s2.2.5 3 1.3c.8.8 1.3 1.8 1.3 3s-.5 2.2-1.3 3z"/></g></svg>