<svg xmlns="http://www.w3.org/2000/svg" viewBox="0 0 24 24"><g fill="#FFF"><path d="M12.7 4.7c-1.1-1.1-2.5-1.6-3.9-1.6S6 3.6 4.9 4.7 3.3 7.2 3.3 8.6s.5 2.8 1.6 3.9 2.5 1.6 3.9 1.6 2.8-.5 3.9-1.6 1.6-2.5 1.6-3.9-.5-2.8-1.6-3.9zm-.7 7.1c-.9.9-2 1.3-3.2 1.3-1.2 0-2.3-.4-3.2-1.3-.9-.9-1.3-2-1.3-3.2 0-1.2.4-2.3 1.3-3.2.9-.9 2-1.3 3.2-1.3 1.2 0 2.3.4 3.2 1.3.9.9 1.3 2 1.3 3.2 0 1.2-.4 2.3-1.3 3.2z"/><path d="M15.5 12.5c.7-1.2 1-2.5 1-3.9 0-2-.8-4-2.3-5.5C12.7 1.6 10.7.8 8.7.8s-4 .8-5.5 2.3C1.7 4.6 1 6.6 1 8.6s.8 4 2.3 5.5c1.5 1.5 3.5 2.3 5.5 2.3 1.3 0 2.7-.4 3.9-1l7.9 7.9 2.9-2.9-8-7.9zm-2.7 1.6l-.3.2c-1.1.7-2.4 1.1-3.7 1.1-1.7 0-3.5-.7-4.8-2-1.3-1.3-2-3.1-2-4.8 0-1.7.7-3.5 2-4.8 1.3-1.3 3.1-2 4.8-2 1.7 0 3.5.7 4.8 2 1.3 1.3 2 3.1 2 4.8 0 1.3-.4 2.6-1.1 3.7l-.2.3 7.7 7.7-1.5 1.5-7.7-7.7z"/></g></svg>