<svg id="Camada_1" xmlns="http://www.w3.org/2000/svg" viewBox="-266 294 24 24"><style>.st0{fill:#FFFFFF;}</style><path class="st0" d="M-254.4 310.2v-9.4c0-.9-.8-1.7-1.7-1.7-.9 0-1.7.8-1.7 1.7v9.4c-1 .6-1.6 1.6-1.6 2.9 0 1.8 1.5 3.3 3.3 3.3h.3c.1 0 .2 0 .3-.1.2 0 .4-.1.6-.2.1 0 .2-.1.3-.1.2-.1.4-.2.5-.4.7-.6 1.2-1.5 1.2-2.6.2-1.1-.5-2.2-1.5-2.8zm.5 5c-.5.5-1.3.9-2.1.9s-1.6-.3-2.1-.9c-.5-.5-.9-1.3-.9-2.1 0-1.1.6-2.1 1.6-2.6h.1v-9.6c0-.4.2-.7.4-1 .2-.2.6-.4 1-.4s.7.2 1 .4c.2.2.4.6.4 1v9.5h.1c.9.5 1.6 1.5 1.6 2.6-.3.9-.6 1.7-1.1 2.2zm.8-14.1h5.4c.2 0 .4-.2.4-.4s-.2-.4-.4-.4h-5.4c-.1 0-.2.1-.3.2v-.4c.1.1.2.2.3.2h3.1c.2 0 .4-.2.4-.4s-.2-.4-.4-.4h-3.1c-.1 0-.2.1-.3.2v-.4c.1.1.2.2.3.2h5.4c.2 0 .4-.2.4-.4s-.2-.4-.4-.4h-5.4c-.1 0-.2.1-.3.2v-.4c.1.1.2.1.2.1h3.1c.2 0 .4-.2.4-.4s-.2-.4-.4-.4h-3.1c-.1 0-.2 0-.2.1v-.3c.1.1.2.1.2.1h5.4c.2 0 .4-.2.4-.4s-.2-.4-.4-.4h-5.4c-.1 0-.2 0-.2.1v-.3c0-.7-.4-1.3-.9-1.7-.5-.4-1.2-.7-1.8-.7-.6 0-1.3.3-1.8.7-.5.4-.9 1-.9 1.7v12.4c-1.2.8-2 2.2-1.9 3.9 0 2.5 2.1 4.6 4.6 4.6 2.5 0 4.6-2.1 4.6-4.6 0-1.7-.7-3.2-2-3.9v-.6c.1.1.2.2.3.2h3.1c.2 0 .4-.2.4-.4s-.2-.4-.4-.4h-3.1c-.1 0-.2.1-.3.2v-.4c.1.1.2.2.3.2h5.4c.2 0 .4-.2.4-.4s-.2-.4-.4-.4h-5.4c-.1 0-.2.1-.3.2v-.4c.1.1.2.2.3.2h3.1c.2 0 .4-.2.4-.4s-.2-.4-.4-.4h-3.1c-.1 0-.2.1-.3.2v-.5c.1.1.2.2.3.2h5.4c.2 0 .4-.2.4-.4s-.2-.4-.4-.4h-5.4c-.1 0-.2.1-.3.2v-.4c.1.1.2.2.3.2h3.1c.2 0 .4-.2.4-.4s-.2-.4-.4-.4h-3.1c-.1 0-.2.1-.3.2v-.4c.1.1.2.2.3.2h5.4c.2 0 .4-.2.4-.4s-.2-.4-.4-.4h-5.4c-.1 0-.2.1-.3.2v-.4c.1.1.2.1.2.1h3.1c.2 0 .4-.2.4-.4s-.2-.4-.4-.4h-3.1c-.1 0-.2 0-.2.1v-.3c.1.1.2.1.2.1h5.4c.2 0 .4-.2.4-.4s-.2-.4-.4-.4h-5.4c-.1 0-.2 0-.2.1v-.4c.1.1.2.2.3.2h3.1c.2 0 .4-.2.4-.4s-.2-.4-.4-.4h-3.1c-.1 0-.2.1-.3.2v-.4c.1.1.2.2.4.2zm0-.4h5.4-5.4zm0-.9h3.1-3.1zm0-.8h5.4-5.4zm-.1-.9h3.1-3.1zm0-.8h5.4-5.4zm.1 10.9h3.1-3.1zm0-.8h5.4-5.4zm0-.8h3.1-3.1zm0-.9h5.4-5.4zm0-.8h3.1-3.1zm0-.9h5.4-5.4zm-.1-.8h3.1-3.1zm0-.8h5.4-5.4zm.1-.9h3.1-3.1zm1.3 11.6c0 1.2-.5 2.2-1.3 3-.8.8-1.8 1.3-3 1.3s-2.2-.5-3-1.3c-.8-.8-1.3-1.8-1.3-3 0-1.7.7-3 1.9-3.7h.1v-12.6c0-.6.3-1.1.7-1.5.4-.4 1-.6 1.6-.6.5 0 1.1.2 1.6.6.4.4.7.9.7 1.5v12.6h.1c1.2.7 1.9 2 1.9 3.7z"/></svg>