<svg xmlns="http://www.w3.org/2000/svg" viewBox="0 0 221.5 177.7"><g fill="none" stroke="#FFF" stroke-linecap="round" stroke-linejoin="round" stroke-miterlimit="10"><path d="M64.2 38.5c-8.3 0-15.1 6.8-15.1 15.1v35.5M171.7 89.2V53.7c0-8.3-6.8-15.1-15.1-15.1M49.1 120.6v41.1c0 8.3 6.8 15.1 15.1 15.1h92.4c8.3 0 15.1-6.8 15.1-15.1v-41.1"/></g><path fill="none" stroke="#FFF" stroke-linecap="round" stroke-linejoin="round" stroke-miterlimit="10" d="M66.1 128.1h88.5"/><g fill="#FFF"><path d="M210.2 107.5l2.1-7.4 2.1 7.4h-4.2zm-2.6 6.2c.5 0 .9-.2 1.1-.6l.9-3.2h5.5l.9 3.2c.1.5.5.6 1.1.6.8 0 2-.6 2-1.3v-.2l-4.6-15.1c-.2-.7-1.1-1.1-2-1.1-.9 0-1.8.3-2 1.1l-4.6 15.1v.2c-.3.8.8 1.3 1.7 1.3zm-7.4-1c0 .6.8 1 1.6 1s1.6-.3 1.6-1V97.1c0-.7-.8-1-1.6-1s-1.6.3-1.6 1v6.3h-5.4v-6.3c0-.7-.8-1-1.6-1s-1.6.3-1.6 1v15.6c0 .6.8 1 1.6 1s1.6-.3 1.6-1v-6.9h5.4v6.9zm-13.5 1c.8 0 1.6-.3 1.6-1V97.1c0-.7-.8-1-1.6-1s-1.6.3-1.6 1v9.6l-4.6-9c-.7-1.4-1.2-1.7-2.3-1.7-.8 0-1.6.3-1.6 1v15.6c0 .6.8 1 1.6 1s1.6-.3 1.6-1V103l5.2 9.6c.3.9.9 1.1 1.7 1.1zm-16.7-1c0 .6.8 1 1.6 1s1.6-.3 1.6-1V97.1c0-.7-.8-1-1.6-1s-1.6.3-1.6 1v15.6zm-3.1-14.6c.2-.4.4-.8.4-1.1 0-.5-.3-.8-.9-.8h-9.1c-.7 0-1 .7-1 1.4s.3 1.4 1 1.4h6.1l-7.1 12.9c-.2.4-.3.8-.3 1.1 0 .5.3.9.9.9h10c.6 0 1-.7 1-1.4s-.4-1.4-1-1.4H160l6.9-13zm-16.3 10.3c0 1.9-1 2.8-2.5 2.8-1.6 0-2.5-.9-2.5-2.8v-6.7c0-1.9.9-2.8 2.5-2.8s2.5.9 2.5 2.8v6.7zm-2.5 5.5c3.2 0 5.6-1.5 5.6-5.5v-6.7c0-4-2.5-5.5-5.6-5.5-3.2 0-5.6 1.5-5.6 5.5v6.7c0 4 2.4 5.5 5.6 5.5zm-11.2-12.6c0 .7.7 1 1.6 1 1.1 0 1.6-.3 1.6-1.5 0-2.8-2.4-4.6-5.7-4.6-3 0-5.5 1.5-5.5 5.5v6.7c0 4 2.5 5.5 5.5 5.5 3.4 0 5.7-1.8 5.7-4.8 0-1.2-.5-1.5-1.6-1.5-.8 0-1.5.2-1.5 1-.1 1-.3 2.6-2.4 2.6-1.7 0-2.6-.9-2.6-2.8v-6.7c0-1.9.9-2.8 2.5-2.8 2.1 0 2.3 1.6 2.4 2.4zm-24.5 6.2l2.1-7.4 2.1 7.4h-4.2zm-2.6 6.2c.5 0 .9-.2 1.1-.6l.9-3.2h5.5l.9 3.2c.1.5.5.6 1.1.6.8 0 2-.6 2-1.3v-.2l-4.6-15.1c-.2-.7-1.1-1.1-2-1.1-.9 0-1.8.3-2 1.1l-4.6 15.1v.2c-.2.8.9 1.3 1.7 1.3zm-7.1-5.3c0 1.9-1 2.8-2.6 2.8-1.7 0-2.6-.9-2.6-2.8V97.1c0-.7-.8-1-1.6-1s-1.6.3-1.6 1v11.2c0 4 2.5 5.5 5.8 5.5 3.2 0 5.8-1.5 5.8-5.5V97.1c0-.7-.8-1-1.6-1s-1.6.3-1.6 1v11.3zm-16.9 2.7c-2.4 0-3.1-1.8-4.1-1.8-.7 0-1.4 1-1.4 1.7 0 1.4 2.4 3 5.5 3 3.3 0 5.7-1.8 5.7-5.2 0-6.2-7.7-5.2-7.7-8.2 0-1.2 1-1.8 2.7-1.8 2 0 2.6.9 3.3.9.9 0 1.2-1.1 1.2-1.7 0-1.6-3.1-1.9-4.6-1.9-2.8 0-5.8 1.2-5.8 4.8 0 5.7 7.7 4.6 7.7 8.2.2 1.4-1.1 2-2.5 2zM65.6 98.9h6.8c.6 0 1-.6 1-1.4 0-.6-.3-1.3-1-1.3h-8.5c-.7 0-1.4.3-1.4 1v15.6c0 .6.7 1 1.4 1h8.5c.7 0 1-.7 1-1.3 0-.7-.4-1.4-1-1.4h-6.8v-4.8h3.6c.7 0 1-.6 1-1.2s-.4-1.2-1-1.2h-3.6v-5zm-16.5-2.7c-.7 0-1 .7-1 1.4 0 .8.4 1.4 1 1.4h3.5v13.8c0 .6.8 1 1.6 1s1.6-.3 1.6-1V99h3.5c.6 0 1-.7 1-1.4s-.3-1.4-1-1.4H49.1zm-4.9 17.5c.8 0 1.6-.3 1.6-1V97.1c0-.7-.8-1-1.6-1s-1.6.3-1.6 1v9.6l-4.6-9c-.7-1.4-1.2-1.7-2.3-1.7-.8 0-1.6.3-1.6 1v15.6c0 .6.8 1 1.6 1s1.6-.3 1.6-1V103l5.2 9.6c.3.9.9 1.1 1.7 1.1zm-16.5-5.3c0 1.9-1 2.8-2.5 2.8-1.6 0-2.5-.9-2.5-2.8v-6.7c0-1.9.9-2.8 2.5-2.8s2.5.9 2.5 2.8v6.7zm-2.5 5.5c3.2 0 5.6-1.5 5.6-5.5v-6.7c0-4-2.5-5.5-5.6-5.5-3.2 0-5.6 1.5-5.6 5.5v6.7c0 4 2.4 5.5 5.6 5.5zm-12-11.5v10.3c0 .6.8 1 1.6 1s1.6-.3 1.6-1v-15c0-1.2-.8-1.6-1.6-1.6-1.1 0-1.7.2-2.4 1.7l-3 5.4-3-5.4c-.8-1.4-1.3-1.7-2.4-1.7-.8 0-1.6.4-1.6 1.6v15c0 .6.8 1 1.6 1s1.6-.3 1.6-1v-10.5l2.8 5.2c.3.5.6.6 1 .6s.8-.1 1.1-.6l2.7-5zM153.8 143c-.7 0-1.3.5-1.3 1.1 0 .6.6 1.1 1.3 1.1.7 0 1.3-.5 1.3-1.1 0-.6-.6-1.1-1.3-1.1zm0 4.2c-.7 0-1.2.3-1.2.7v7.1c0 .4.5.7 1.2.7.6 0 1.2-.4 1.2-.7v-7.1c0-.4-.5-.7-1.2-.7zm-8.1 8.7c2.1 0 3.9-1.7 3.9-3.7v-4.3c0-.4-.5-.7-1.2-.7-.6 0-1.2.3-1.2.7v4.3c0 .8-.7 1.6-1.6 1.6s-1.6-.8-1.6-1.6v-4.3c0-.4-.5-.7-1.2-.7-.6 0-1.2.4-1.2.7v4.3c.2 2 2 3.7 4.1 3.7zm-12.5-5.2c0-.8.7-1.6 1.6-1.6.8 0 1.6.6 1.6 1.6v1.8c0 .4-.7 1.3-1.6 1.3-.8 0-1.6-.8-1.6-1.7v-1.4zm4.4-3.5c-.6 0-1.1.3-1.1.7v.5c-.4-.7-1.3-1.4-2.4-1.4-1.8 0-3.2 1.7-3.2 3.7v1.5c0 1.9 1.5 3.7 3.2 3.7 1.1 0 2-.7 2.4-1.4v4.5c0 .4.5.7 1.2.7s1.2-.4 1.2-.7v-11.1c-.2-.4-.7-.7-1.3-.7zm-11.8 5.2c0 .9-.9 1.7-1.7 1.7-.5 0-1-.3-1-1 0-1 1.1-1.1 2.3-1.1h.3v.4zm-1.6-5.3c-1.3 0-2.9.6-2.9 1.3 0 .5.3 1.2.8 1.2.4 0 .7-.6 2.1-.6 1.2 0 1.6.9 1.6 1.7v.2h-.8c-2.5 0-4.2.6-4.2 2.6 0 1.6 1.1 2.4 2.3 2.4 1.2 0 2.1-.7 2.7-1.4v.5c0 .4.5.7 1 .7.6 0 1.1-.3 1.1-.7v-4.4c.2-1.9-.9-3.5-3.7-3.5zm-15.9 3.6v-.5c0-.9.8-1.4 1.6-1.4.9 0 1.6.6 1.6 1.4 0 .4-.1.5-.5.5h-2.7zm1.7-3.6c-2.2 0-3.9 1.7-3.9 3.6v1.5c0 2.2 1.8 3.7 4.4 3.7 1.9 0 3.2-.9 3.2-1.5 0-.4-.3-1-.9-1s-1 .7-2.2.7c-1.3 0-2.1-.7-2.1-1.7v-.4h3.7c.8 0 1.7-.1 1.7-1.6-.2-2-2-3.3-3.9-3.3zm-10.6 8.8c2.1 0 3.9-1.7 3.9-3.7v-4.3c0-.4-.5-.7-1.2-.7-.6 0-1.2.3-1.2.7v4.3c0 .8-.7 1.6-1.6 1.6s-1.6-.8-1.6-1.6v-4.3c0-.4-.5-.7-1.2-.7-.6 0-1.2.4-1.2.7v4.3c.2 2 1.9 3.7 4.1 3.7zm-12.5-5.2c0-.8.7-1.6 1.6-1.6.8 0 1.6.6 1.6 1.6v1.8c0 .4-.7 1.3-1.6 1.3-.8 0-1.6-.8-1.6-1.7v-1.4zm4.4-3.5c-.6 0-1.1.3-1.1.7v.5c-.4-.7-1.3-1.4-2.4-1.4-1.8 0-3.2 1.7-3.2 3.7v1.5c0 1.9 1.5 3.7 3.2 3.7 1.1 0 2-.7 2.4-1.4v4.5c0 .4.5.7 1.2.7s1.2-.4 1.2-.7v-11.1c-.2-.4-.7-.7-1.3-.7zM80.5 143c-.7 0-1.3.5-1.3 1.1 0 .6.6 1.1 1.3 1.1.7 0 1.3-.5 1.3-1.1 0-.6-.6-1.1-1.3-1.1zm0 4.2c-.7 0-1.2.3-1.2.7v7.1c0 .4.5.7 1.2.7.6 0 1.2-.4 1.2-.7v-7.1c0-.4-.5-.7-1.2-.7zm-5.6-5c-.7 0-1.2.3-1.2.7V155c0 .4.5.7 1.2.7.6 0 1.2-.4 1.2-.7v-12.1c0-.4-.6-.7-1.2-.7zM68 155.9c1.7 0 3-.8 3-1.5 0-.5-.4-1.1-1-1.1-.5 0-.7.5-1.8.5-1.2 0-1.8-.6-1.8-1.7v-1.4c0-1 .5-1.7 1.7-1.7 1.1 0 1.4.5 1.8.5.6 0 .9-.7.9-1.1 0-.7-1.2-1.4-2.9-1.4-2.7 0-3.9 1.6-3.9 3.7v1.4c.1 2.2 1.3 3.8 4 3.8z"/></g><circle fill="#462E4C" cx="87.4" cy="15.5" r="6"/><circle fill="#DEAE26" cx="110.4" cy="71.1" r="6"/><circle fill="#82B585" cx="110.4" cy="6" r="6"/><circle fill="#154B97" cx="133.4" cy="61.6" r="6"/><circle fill="#681011" cx="77.8" cy="38.5" r="6"/><circle fill="#6B99B3" cx="142.9" cy="38.5" r="6"/><circle fill="#E86326" cx="87.4" cy="61.6" r="6"/><circle fill="#2A6D51" cx="133.4" cy="15.5" r="6"/><circle fill="none" stroke="#FFF" stroke-miterlimit="10" cx="110.4" cy="38.5" r="21"/><path fill="#FFF" d="M123.8 28.2H97V48.9h19.5v-8.3h-12.3v-5.2h12.3v-2.5h7.3v-4.7zm-8.3 3.7h-11.3v-2.7h11.3v2.7zm-17.5 1h5.2v1.5H98v-1.5zm0-1v-2.7h5.2v2.7H98zm0 16v-6.3h5.2v6.3H98zm17.5-6.3v6.3h-11.3v-6.3h11.3zm-12.3-1H98v-5.2h5.2v5.2zm12.3-6.1h-11.3V33h11.3v1.5zm7.3-2.6h-6.3v-2.7h6.3v2.7z"/></svg>