<svg xmlns="http://www.w3.org/2000/svg" viewBox="0 0 24 24"><path fill="#FFF" d="M5.3 7.5c.6 0 1.2-.2 1.6-.7.4-.4.7-1 .7-1.6 0-.6-.2-1.2-.7-1.6-.5-.3-1-.6-1.6-.6-.6 0-1.2.3-1.6.7-.4.4-.7 1-.7 1.6 0 .6.2 1.2.7 1.6.4.4 1 .6 1.6.6zm-.9-3.1c.3-.2.6-.4.9-.4.3 0 .6.1.9.4.2.3.3.6.3.9 0 .3-.1.6-.4.9-.2.2-.5.3-.8.3-.3 0-.6-.1-.9-.3-.2-.3-.4-.6-.4-.9 0-.3.2-.6.4-.9zM12 19.2c-1.2 0-2.2 1-2.2 2.2 0 1.2 1 2.2 2.2 2.2 1.2 0 2.2-1 2.2-2.2 0-1.2-1-2.2-2.2-2.2zm0 3.5c-.7 0-1.2-.6-1.2-1.2 0-.7.6-1.2 1.2-1.2.7 0 1.2.6 1.2 1.2 0 .7-.5 1.2-1.2 1.2zm0-17.9c1.2 0 2.2-1 2.2-2.2 0-1.2-1-2.2-2.2-2.2-1.2 0-2.2 1-2.2 2.2 0 1.2 1 2.2 2.2 2.2zm0-3.5c.7 0 1.2.6 1.2 1.2 0 .7-.6 1.2-1.2 1.2-.7 0-1.2-.6-1.2-1.2 0-.7.5-1.2 1.2-1.2zm6.7 15.2c-.6 0-1.2.2-1.6.7-.4.4-.7 1-.7 1.6 0 .6.2 1.2.7 1.6.4.4 1 .7 1.6.7.6 0 1.2-.2 1.6-.7.4-.4.7-1 .7-1.6 0-.6-.2-1.2-.7-1.6-.4-.5-1-.7-1.6-.7zm.9 3.1c-.3.2-.6.4-.9.4-.3 0-.6-.1-.9-.4-.2-.2-.4-.6-.4-.9 0-.3.1-.6.4-.9.2-.2.6-.4.9-.4.3 0 .6.1.9.4.2.2.4.6.4.9 0 .3-.2.6-.4.9zM4.8 12c0-1.2-1-2.2-2.2-2.2-1.2 0-2.2 1-2.2 2.2 0 1.2 1 2.2 2.2 2.2 1.2 0 2.2-1 2.2-2.2zm-2.3 1.2c-.7 0-1.2-.6-1.2-1.2 0-.7.6-1.2 1.2-1.2.7 0 1.2.6 1.2 1.2.1.7-.5 1.2-1.2 1.2zm19-3.4c-1.2 0-2.2 1-2.2 2.2 0 1.2 1 2.2 2.2 2.2 1.2 0 2.2-1 2.2-2.2 0-1.2-1-2.2-2.2-2.2zm0 3.4c-.7 0-1.2-.6-1.2-1.2 0-.7.6-1.2 1.2-1.2.7 0 1.2.6 1.2 1.2 0 .7-.5 1.2-1.2 1.2zM5.3 16.5c-.6 0-1.2.2-1.6.7-.4.4-.7 1-.7 1.6 0 .6.2 1.2.7 1.6.4.4 1 .7 1.6.7.6 0 1.2-.2 1.6-.7.4-.4.7-1 .7-1.6 0-.6-.2-1.2-.7-1.6-.5-.5-1-.7-1.6-.7zm.9 3.1c-.3.2-.6.4-.9.4-.3 0-.6-.1-.9-.4-.2-.3-.4-.6-.4-.9 0-.3.1-.6.4-.9l-.4-.4.4.4c.2-.2.6-.4.9-.4.3 0 .6.1.9.4.2.2.4.6.4.9-.1.3-.2.6-.4.9zM17.1 6.9c.4.4 1 .7 1.6.7.6 0 1.2-.2 1.6-.7.4-.4.7-1 .7-1.6 0-.6-.2-1.2-.7-1.6-.4-.4-1-.7-1.6-.7-.6 0-1.2.2-1.6.7-.4.4-.7 1-.7 1.6.1.6.3 1.1.7 1.6zm.7-2.5c.3-.2.6-.4.9-.4.3 0 .6.1.9.4.2.3.4.6.4.9 0 .3-.1.6-.4.9-.2.2-.6.4-.9.4-.3 0-.6-.1-.9-.4-.2-.2-.4-.6-.4-.9.1-.3.2-.6.4-.9l-.4-.4.4.4zM12 6.6C9 6.6 6.6 9 6.6 12S9 17.4 12 17.4s5.4-2.4 5.4-5.4S15 6.6 12 6.6zm0 9.8c-2.4 0-4.4-2-4.4-4.4s2-4.4 4.4-4.4 4.4 2 4.4 4.4-2 4.4-4.4 4.4z"/></svg>