<svg id="Camada_1" xmlns="http://www.w3.org/2000/svg" viewBox="-266 294 24 24"><style>.st0{fill:#FFFFFF;}</style><path class="st0" d="M-254.3 294.4c-.1 0-.3 0-.4.1-.1.1-.2.2-.2.4v1.6h.1v15.1c0 .5-.1.8-.3 1.2-.2.3-.5.5-1 .7-.4.1-.8.3-1.3.4-.5.1-1 .4-1.3.9 0 .1-.1.1-.1.2l-.1.2h.1c-.4.7-.7 1.4-1.1 2 0 .1 0 .1-.1.2l-.1.2H-248.7l-.1-.2v-.1c-.4-.7-.7-1.4-1.1-2.1h.1l-.1-.2c-.1-.1-.1-.2-.2-.3-.3-.4-.7-.7-1.2-.8-.6-.1-1.1-.3-1.7-.5-.4-.2-.7-.5-.8-.9-.1-.3-.1-.6-.2-.9v-15h.1v-.1-.9-.6c0-.2-.1-.3-.2-.4.1-.2-.1-.2-.2-.2m-4.2 20.8h8.3c.4.7.8 1.4 1.1 2.1h-10.6c.5-.7.8-1.4 1.2-2.1zm4.2-19.8c.1 0 .2-.1.3-.1v.4h-.6v-.2-.2c.1.1.1.1.3.1m0-.4s.1 0 0 0c.1.1 0 .2 0 .2-.1-.1-.1-.1 0-.2-.1 0-.1 0 0 0zm.2 1v.2h-.4v-.2h.4zm-.4.5h.4v14.9h-.4v-14.9zm0 15.2h.4v.1h-.4v-.1zm-2.9 2.5c.4-.1.9-.2 1.3-.4.5-.2.9-.4 1.1-.8.2-.3.3-.5.3-.9h.6c0 .1 0 .2.1.3.1.5.5.9.9 1.1.6.3 1.1.5 1.7.6.3.1.6.2.8.4h-7.7l.9-.3z"/></svg>