<svg xmlns="http://www.w3.org/2000/svg" viewBox="0 0 25.8 25.8"><path fill="#FFF" d="M25.1 5.9c0-1.4-.5-2.9-1.5-4l-.4-.4c-.6-.6-1.3-.8-2-.8s-1.5.3-2 .8l-4.8 4.8c-.6.6-.8 1.3-.8 2s.3 1.5.8 2l.4.4c.6.5 1.3.9 2.1 1.2-.9.9-1.8 1.7-2.4 2.4-.9.9-1.7 1.8-2.6 2.7-.2-.7-.6-1.4-1.2-2l-.4-.4c-.6-.6-1.3-.8-2-.8s-1.5.3-2 .8l-4.8 4.8c-.6.6-.8 1.3-.8 2s.3 1.5.8 2l.4.4c1.2 1 2.6 1.5 4 1.5.4 0 .9 0 1.3-.1h.2s.2 0 .4-.1c.8-.2 1.8-.8 3.3-1.9 1.5-1.1 3.5-2.9 6.2-5.6 4.2-4.2 6.1-6.6 6.9-8.2.4-.7.6-1.2.7-1.8.1-.8.2-1.2.2-1.7zM14.6 8.3c0-.5.2-1 .5-1.3l4.8-4.8c.4-.4.8-.5 1.3-.5.3 0 .6.1.9.2l-7.3 7.3c-.1-.3-.2-.6-.2-.9zm1.9 1.9c-.3 0-.6-.1-.9-.2l7.3-7.3c.2.3.3.6.3.9 0 .5-.2 1-.5 1.3l-4.8 4.8c-.5.3-1 .5-1.4.5zM2.2 19.9L7 15.2c.4-.4.8-.5 1.3-.5.3 0 .6.1.9.2l-7.3 7.3c-.2-.3-.2-.6-.2-.9 0-.5.2-1 .5-1.4zm.4 2.9l7.3-7.3c.2.3.3.6.3.9 0 .5-.2.9-.5 1.3l-4.8 4.8c-.4.4-.8.5-1.3.5-.4.1-.7 0-1-.2zM23.9 7.1c-.1.4-.2.9-.6 1.5-.8 1.4-2.6 3.8-6.8 8-2.7 2.7-4.7 4.4-6.1 5.5-1.4 1.1-2.3 1.5-3 1.7-.1 0-.2.1-.4.1-.4.1-.8.1-1.1.1-.4 0-.9-.1-1.3-.2.3-.1.7-.4 1-.6l4.8-4.8c.3-.3.5-.6.6-1 0 .1.1.3.1.4l.2 1 .7-.7c1.1-1.1 2.2-2.3 3.2-3.3.8-.8 1.9-1.8 3.1-3l.7-.7-1-.2c-.1 0-.3-.1-.4-.1.4-.1.7-.4 1-.6l4.8-4.8c.3-.3.5-.6.6-1 0 .6.1 1.1.1 1.5 0 .4-.1.8-.2 1.2z"/></svg>