<svg xmlns="http://www.w3.org/2000/svg" viewBox="0 0 27.6 27.6"><path fill="#462E4C" d="M6.2 8.8c.7 0 1.3-.3 1.8-.8s.7-1.1.7-1.8c0-.6-.2-1.3-.7-1.8-.5-.5-1.1-.7-1.8-.7-.6 0-1.3.2-1.8.7-.5.5-.7 1.2-.7 1.8 0 .6.2 1.3.7 1.8.5.5 1.2.8 1.8.8z"/><path fill="#DEAE26" d="M13.8 22c-1.4 0-2.5 1.1-2.5 2.5s1.1 2.5 2.5 2.5 2.5-1.1 2.5-2.5-1.1-2.5-2.5-2.5z"/><path fill="#82B585" d="M13.8 5.6c1.4 0 2.5-1.1 2.5-2.5S15.2.6 13.8.6s-2.5 1.1-2.5 2.5 1.1 2.5 2.5 2.5z"/><path fill="#154B97" d="M21.4 18.8c-.6 0-1.3.2-1.8.7-.5.5-.7 1.1-.7 1.8 0 .6.2 1.3.7 1.8.5.5 1.1.7 1.8.7.6 0 1.3-.2 1.8-.7.5-.5.7-1.1.7-1.8 0-.6-.2-1.3-.7-1.8-.5-.4-1.2-.7-1.8-.7z"/><path fill="#681011" d="M5.6 13.8c0-1.4-1.1-2.5-2.5-2.5S.6 12.4.6 13.8s1.1 2.5 2.5 2.5 2.5-1.1 2.5-2.5z"/><path fill="#6B99B3" d="M24.5 11.3c-1.4 0-2.5 1.1-2.5 2.5s1.1 2.5 2.5 2.5 2.5-1.1 2.5-2.5c.1-1.4-1.1-2.5-2.5-2.5z"/><path fill="#E86326" d="M6.2 18.8c-.6 0-1.3.2-1.8.7-.5.5-.7 1.1-.7 1.8 0 .6.2 1.3.7 1.8.5.5 1.1.7 1.8.7.6 0 1.3-.2 1.8-.7.5-.5.7-1.1.7-1.8 0-.6-.2-1.3-.7-1.8-.5-.4-1.1-.7-1.8-.7z"/><path fill="#2A6D51" d="M19.6 8c.5.5 1.1.7 1.8.7.6 0 1.3-.2 1.8-.7.5-.5.7-1.1.7-1.8 0-.6-.2-1.3-.7-1.8-.5-.5-1.1-.7-1.8-.7-.6 0-1.3.2-1.8.7-.5.5-.7 1.1-.7 1.8-.1.7.2 1.3.7 1.8z"/><path fill="#FFF" d="M13.8 7.7c-3.3 0-6.1 2.7-6.1 6.1s2.7 6.1 6.1 6.1 6.1-2.7 6.1-6.1-2.8-6.1-6.1-6.1zm0 11c-2.7 0-4.9-2.2-4.9-4.9s2.2-4.9 4.9-4.9 4.9 2.2 4.9 4.9-2.2 4.9-4.9 4.9z"/></svg>