<svg xmlns="http://www.w3.org/2000/svg" width="308.844" height="110.288" viewBox="0 0 308.844 110.288"><g fill="#FFF"><path d="M98.254 74.125c-1.32 0-2.043.68-2.043 2.156v4.4c0 1.49.725 2.17 2.1 2.17 1.69 0 1.845-1.065 1.93-1.746.028-.227.17-.37.468-.37.327 0 .468.115.468.583 0 1.29-1.092 2.397-2.965 2.397-1.602 0-2.936-.823-2.936-3.036V76.28c0-2.2 1.362-3.022 2.98-3.022 1.858 0 2.92 1.092 2.92 2.37 0 .467-.14.566-.467.566-.326 0-.454-.156-.468-.355-.028-.608-.298-1.715-1.986-1.715zM115.58 80.68v-4.398c0-2.2 1.29-3.022 2.95-3.022 1.66 0 2.952.823 2.952 3.022v4.398c0 2.213-1.29 3.036-2.95 3.036-1.66 0-2.952-.823-2.952-3.036zm4.966-4.398c0-1.475-.752-2.156-2.015-2.156-1.26 0-2.014.68-2.014 2.156v4.398c0 1.49.752 2.17 2.015 2.17 1.264 0 2.016-.68 2.016-2.17v-4.398zM140.44 79.743c-.114.213-.256.298-.384.298s-.255-.084-.37-.297l-2.34-4.497v8.015c0 .242-.24.37-.468.37-.24 0-.468-.128-.468-.37v-9.546c0-.34.227-.454.468-.454.34 0 .567.298.752.652l2.44 4.71 2.44-4.71c.184-.355.41-.652.752-.652.255 0 .468.113.468.454v9.547c0 .242-.227.37-.468.37-.227 0-.468-.128-.468-.37V75.29l-2.355 4.455zM158.774 73.615c0-.24.213-.355.426-.355h2.326c1.59 0 2.894.41 2.894 2.412 0 1.192-.483 2.03-1.206 2.34.865.356 1.46.994 1.46 2.44v.256c0 2.156-1.233 2.922-2.808 2.922H159.2c-.27 0-.426-.17-.426-.355v-9.66zm.922 3.986h1.858c1.305 0 1.93-.48 1.93-1.83 0-1.304-.824-1.645-1.987-1.645h-1.802V77.6zm2.057 5.165c1.234 0 1.986-.638 1.986-2.1v-.24c0-1.475-.753-2.015-1.987-2.015h-2.057v4.355h2.057zM179.292 73.6c0-.24.227-.34.468-.34.227 0 .468.1.468.34v9.662c0 .24-.24.37-.468.37-.24 0-.468-.13-.468-.37v-9.66zM200.15 83.09l-3.944-7.674v7.845c0 .242-.24.37-.468.37-.24 0-.468-.128-.468-.37v-9.646c0-.255.227-.355.468-.355.34 0 .553.297.738.65l3.83 7.548v-7.86c0-.24.227-.34.468-.34.227 0 .468.1.468.34v9.662c0 .24-.24.37-.468.37-.27 0-.482-.255-.624-.54zM217.222 78.027h2.227c.226 0 .353.198.353.425 0 .185-.1.383-.354.383h-2.228v3.93h4.54c.227 0 .354.212.354.44 0 .198-.1.425-.354.425h-5.05c-.213 0-.426-.128-.426-.37v-9.646c0-.24.213-.355.426-.355h5.05c.255 0 .354.212.354.41 0 .24-.127.454-.354.454h-4.54v3.903zM98.254 95.638c-1.32 0-2.043.68-2.043 2.156v4.398c0 1.49.725 2.17 2.1 2.17 1.69 0 1.845-1.064 1.93-1.745.028-.227.17-.37.468-.37.327 0 .468.115.468.583 0 1.29-1.092 2.397-2.965 2.397-1.602 0-2.936-.823-2.936-3.036v-4.397c0-2.2 1.362-3.022 2.98-3.022 1.858 0 2.92 1.093 2.92 2.37 0 .468-.14.567-.467.567-.326 0-.454-.156-.468-.355-.028-.608-.298-1.714-1.986-1.714zM115.58 102.192v-4.398c0-2.2 1.29-3.022 2.95-3.022 1.66 0 2.952.823 2.952 3.022v4.398c0 2.213-1.29 3.036-2.95 3.036-1.66 0-2.952-.823-2.952-3.036zm4.966-4.398c0-1.475-.752-2.156-2.015-2.156-1.26 0-2.014.68-2.014 2.156v4.398c0 1.49.752 2.17 2.015 2.17 1.264 0 2.016-.68 2.016-2.17v-4.398zM140.44 101.256c-.114.213-.256.298-.384.298s-.255-.085-.37-.298l-2.34-4.497v8.014c0 .24-.24.37-.468.37-.24 0-.468-.13-.468-.37v-9.547c0-.34.227-.454.468-.454.34 0 .567.298.752.652l2.44 4.71 2.44-4.71c.184-.355.41-.652.752-.652.255 0 .468.113.468.454v9.547c0 .24-.227.37-.468.37-.227 0-.468-.13-.468-.37V96.8l-2.355 4.456zM158.66 102.192v-4.398c0-2.2 1.292-3.022 2.952-3.022s2.95.823 2.95 3.022v4.398c0 2.213-1.29 3.036-2.95 3.036-1.66 0-2.95-.823-2.95-3.036zm4.966-4.398c0-1.475-.752-2.156-2.015-2.156-1.26 0-2.014.68-2.014 2.156v4.398c0 1.49.752 2.17 2.015 2.17 1.264 0 2.016-.68 2.016-2.17v-4.398zM197.696 106.334v-1.12c-1.49-.114-2.596-.952-2.596-3.023v-4.397c0-2.2 1.29-3.022 2.95-3.022 1.66 0 2.952.824 2.952 3.023v4.398c0 2.058-1.107 2.91-2.582 3.023v1.12c0 .242-.185.356-.355.356-.185 0-.37-.114-.37-.356zm2.37-8.54c0-1.475-.753-2.156-2.016-2.156-1.262 0-2.015.68-2.015 2.156v4.398c0 1.334.61 2.015 1.66 2.128v-1.05c0-.24.184-.34.37-.34.17 0 .354.098.354.34v1.05c1.034-.128 1.644-.794 1.644-2.128v-4.398zM220.91 95.113c0-.24.227-.34.468-.34.227 0 .468.1.468.34v7.08c0 2.212-1.32 3.035-2.98 3.035-1.673 0-2.978-.823-2.978-3.036v-7.08c0-.24.24-.34.468-.34.24 0 .468.1.468.34v7.08c0 1.475.766 2.17 2.043 2.17 1.276 0 2.043-.695 2.043-2.17v-7.08zM236.846 95.113c0-.24.227-.34.468-.34.227 0 .468.1.468.34v9.66c0 .242-.24.37-.468.37-.24 0-.468-.128-.468-.37v-9.66zM257.22 102.405c0-3.15-4.71-1.617-4.71-5.08 0-2.07 1.69-2.58 3.01-2.58 1.063 0 2.382.354 2.382.864 0 .184-.156.524-.41.524-.27 0-.74-.54-1.987-.54-1.05 0-2.057.384-2.057 1.646 0 2.64 4.71 1.15 4.71 5.08 0 2.014-1.248 2.92-2.993 2.92-1.816 0-2.908-1.02-2.908-1.53 0-.228.213-.526.426-.526.37 0 .653 1.177 2.426 1.177 1.317.002 2.11-.664 2.11-1.955zM273.653 99.54h2.227c.227 0 .354.197.354.424 0 .185-.1.383-.354.383h-2.227v3.93h4.54c.227 0 .354.212.354.44 0 .198-.1.425-.354.425h-5.05c-.213 0-.426-.128-.426-.37v-9.646c0-.24.213-.355.426-.355h5.05c.255 0 .354.214.354.412 0 .24-.127.454-.354.454h-4.54v3.903zM292.81 95.113c0-.185.142-.326.354-.34h2.51c1.66 0 3.065.667 3.065 2.795 0 1.76-.98 2.525-2.214 2.738l2.185 4.2c.043.056.058.127.058.184 0 .24-.27.482-.54.482-.226 0-.382-.27-.496-.496l-2.184-4.256h-1.802v4.355c0 .24-.24.37-.468.37-.24 0-.468-.13-.468-.37v-9.662zm.937.525v3.972h1.93c1.262 0 2.127-.567 2.127-2 0-1.42-.865-1.972-2.128-1.972h-1.93z"/></g><path fill="#A22844" d="M284.95 3.42c-.626 0-1.24.042-1.844.123V27.86c1.44-.425 2.967-.653 4.545-.653 1.98 0 3.875.358 5.625 1.013 3.302-2.522 5.434-6.508 5.434-10.993 0-7.626-6.16-13.807-13.76-13.807M293.276 28.22c-2.312 1.766-5.197 2.814-8.327 2.814-.626 0-1.24-.042-1.844-.123v27.956c1.44.425 2.967.653 4.545.653 8.894 0 16.102-7.234 16.102-16.157 0-6.938-4.357-12.854-10.476-15.143"/><path fill="#761C27" d="M287.652 27.207c-1.578 0-3.104.228-4.545.653v3.05c.603.082 1.218.124 1.843.124 3.13 0 6.015-1.048 8.327-2.814-1.752-.655-3.647-1.013-5.625-1.013"/><path fill="#A22844" d="M283.106 3.42H247.54v50.326c0 5.693 5.854 5.874 5.854 5.874h29.712v-.754c-6.68-1.968-11.556-8.164-11.556-15.503 0-5.748 2.992-10.795 7.5-13.66-4.65-2.215-7.86-6.97-7.86-12.476 0-6.998 5.188-12.78 11.917-13.684V3.42"/><path fill="#761C27" d="M283.106 3.542c-6.73.904-11.918 6.686-11.918 13.684 0 5.507 3.213 10.26 7.86 12.477 1.247-.792 2.61-1.417 4.057-1.844V3.54M279.05 29.704c-4.507 2.864-7.5 7.91-7.5 13.66 0 7.338 4.877 13.534 11.556 15.502V30.91c-1.434-.19-2.798-.606-4.057-1.206"/><path fill="#56171C" d="M283.106 27.86c-1.448.427-2.81 1.052-4.057 1.844 1.258.6 2.622 1.015 4.056 1.207v-3.05"/><path fill="#DD9F42" d="M116.728 3.5h-23.04v50.35c0 5.696 5.76 5.877 5.76 5.877h17.28V52.92l-4.74-3.23 3.807-5.817-17.987-27.475 18.92-12.894V3.5M126.9 59.733c.807.46 1.638.622 2.412.622.056 0 .112 0 .168-.003-1.05-.03-1.978-.352-2.58-.62M142.23 45.3l-8.157 12.46c-.617.942-1.307 1.57-2.014 1.972.45-.2.717-.37.717-.37l9.455-6.443V45.3M116.735 3.5l-.006.003v38.944l12.75-19.48L116.736 3.5"/><path fill="#C5742D" d="M116.728 3.504l-18.92 12.894 17.987 27.476.933-1.426V3.504"/><path fill="#DD9F42" d="M165.272 3.5h-23.04v.003l18.92 12.894-17.987 27.476 3.807 5.816-4.74 3.23v6.808h17.28s5.76-.18 5.76-5.877V3.5"/><path fill="#C5742D" d="M143.165 43.874l-.933 1.425v7.62l4.74-3.23-3.807-5.816"/><path fill="#DD9F42" d="M132.06 59.733c-.602.268-1.53.588-2.58.62l.168.003c.774 0 1.605-.164 2.413-.623M116.73 45.3v7.62l9.455 6.442s.268.17.717.37c-.707-.402-1.397-1.03-2.014-1.973l-8.158-12.46m25.497-41.8L129.48 22.97l12.752 19.478V3.504l-.007-.005"/><path fill="#C5742D" d="M115.795 43.874l-3.807 5.815 4.74 3.23V45.3l-.933-1.426M129.48 22.97l-12.752 19.478v2.85l8.157 12.46c.617.944 1.307 1.572 2.014 1.974.602.268 1.53.588 2.58.62 1.05-.032 1.978-.352 2.58-.62.708-.402 1.397-1.03 2.015-1.973l8.157-12.46v-2.852l-12.752-19.48"/><path fill="#B2592D" d="M116.728 42.448l-.933 1.426.933 1.425v-2.852"/><path fill="#C5742D" d="M142.232 3.504v38.944l.933 1.426 17.987-27.476-18.92-12.894"/><path fill="#B2592D" d="M142.232 42.448v2.85l.933-1.424-.933-1.426"/><path fill="#648157" d="M180.798 43.122V53.69c0 5.702 5.865 5.883 5.865 5.883h17.594v-.08c-10.447-.79-19.3-7.282-23.46-16.37m23.46-39.85h-23.46v16.452c4.16-9.09 13.013-15.58 23.46-16.37v-.082M232.02 43.122c-4.158 9.09-13.01 15.58-23.457 16.37v.082h23.458V43.122m-5.863-39.85h-17.594v.082c10.447.79 19.3 7.282 23.458 16.37V9.16c0-5.703-5.863-5.885-5.863-5.885"/><path fill="#648157" d="M232.02 19.725v23.397c1.63-3.563 2.54-7.524 2.54-11.698s-.908-8.136-2.54-11.7m-51.222 0c-1.63 3.564-2.538 7.525-2.538 11.7s.908 8.135 2.538 11.697V19.726M206.41 3.273c-.724 0-1.443.027-2.153.08v56.14c.71.053 1.43.08 2.153.08.724 0 1.443-.027 2.153-.08V3.354c-.71-.054-1.43-.082-2.153-.082"/><path fill="#305836" d="M204.256 3.355c-10.447.79-19.3 7.282-23.458 16.37v23.398c4.16 9.09 13.012 15.58 23.458 16.37V3.356M208.563 3.355v56.138c10.447-.79 19.3-7.282 23.458-16.37V19.724c-4.157-9.09-13.01-15.58-23.457-16.37"/><path fill="#FFF" d="M5.78 9.844v15.722c-.002.743.2 1.38.53 1.862.243.363.547.635.852.834.46.3.92.443 1.268.52.35.077.594.086.63.087h7.52v-1.614H9.085v.806l.025-.806-.01.348.016-.347H9.11l-.01.347.016-.347c-.006.004-.53-.038-.95-.274-.214-.117-.398-.27-.533-.477-.134-.21-.237-.488-.24-.94V9.843H5.78z"/><path fill="#FFF" d="M7.394 22.193V6.47c.002-.467.112-.747.252-.96.107-.16.242-.283.398-.385.232-.153.514-.248.733-.295.11-.025.202-.038.263-.045l.065-.005h.01l-.013-.29.01.29h.004l-.014-.29.01.29-.026-.807v.806h7.495V3.166H9.062c-.064.006-.784.02-1.593.43-.402.207-.832.527-1.158 1.012-.33.482-.532 1.12-.53 1.86v15.723h1.614zM57.51 3.116h-7.521c-.067.006-.79.02-1.6.44-.402.21-.83.536-1.156 1.026-.326.488-.527 1.13-.524 1.88v6.998c-.003.75.198 1.393.524 1.88.243.368.547.645.852.847.46.304.92.45 1.27.53.352.078.597.088.634.09h.014l5.01-.017-.002-.806-.025.806.01-.353-.016.353h.007l.01-.353-.016.353c.006-.004.528.038.948.278.212.12.397.273.533.488.136.216.242.504.244.97v6.997c-.003.48-.114.772-.256.99-.108.164-.244.29-.4.395-.232.156-.513.25-.73.3-.11.023-.2.037-.26.043l-.065.007h-.01l.014.305-.01-.305h-.005l.015.304-.01-.304.025.806v-.806h-7.495v1.613h7.52c.066-.007.788-.02 1.598-.44.403-.21.832-.537 1.157-1.027.326-.488.527-1.13.524-1.88v-6.998c.003-.75-.198-1.393-.524-1.88-.243-.368-.547-.645-.852-.847-.46-.304-.92-.45-1.27-.53-.352-.078-.597-.088-.634-.09h-.014l-5.01.017.002.806.025-.805-.012.356.017-.355h-.006l-.012.356.017-.355c-.005.004-.527-.038-.947-.278-.212-.12-.397-.273-.533-.488-.135-.217-.24-.505-.243-.97V6.463c.003-.48.114-.772.256-.99.108-.164.244-.29.4-.395.232-.157.513-.252.73-.3.11-.025.2-.04.26-.045l.065-.006.01-.002-.013-.297.01.3h.004l-.014-.3.01.3-.026-.807v.806h7.495V3.115zM37.886 28.786V6.298c.003-.743-.2-1.38-.528-1.862-.244-.363-.548-.635-.853-.834-.46-.3-.92-.443-1.268-.52-.35-.077-.594-.086-.63-.087h-5.031c-.065.006-.785.02-1.594.43-.402.207-.832.527-1.158 1.012-.328.483-.53 1.12-.528 1.862v22.487h1.613V6.3c.003-.47.112-.75.253-.962.107-.16.242-.283.398-.385.233-.153.515-.248.734-.295.11-.024.202-.037.262-.044l.065-.006h.012l-.014-.288.01.287h.004l-.014-.287.01.287L29.6 3.8v.806h4.98V3.8l-.024.806.01-.355-.015.356h.006l.01-.355-.015.356c.007-.004.532.038.952.274.213.117.397.27.532.477.134.21.237.488.24.94v22.49h1.612z"/><path fill="#FFF" d="M27.102 19.143h9.993V17.53h-9.993M78.962 28.786V6.298c.003-.743-.2-1.38-.528-1.862-.244-.363-.55-.636-.853-.835-.458-.298-.918-.442-1.267-.52-.35-.076-.594-.085-.63-.086H70.653c-.065.006-.785.02-1.594.43-.403.207-.833.527-1.16 1.012-.327.483-.53 1.12-.527 1.862v22.488h1.613V6.298c.003-.468.112-.748.253-.96.106-.16.24-.284.397-.386.232-.153.514-.248.733-.295.11-.024.202-.037.262-.044l.065-.006h.01l-.013-.29.01.29h.004l-.014-.288.01.288-.028-.808v.806h4.98V3.8l-.024.806.01-.353-.015.352h.005l.01-.353-.015.352c.006-.004.53.038.95.274.214.117.398.27.533.477.134.21.237.488.24.94v22.49h1.612z"/><path fill="#FFF" d="M68.178 19.143h9.993V17.53H68.18"/></svg>