<svg xmlns="http://www.w3.org/2000/svg" width="308.844" height="110.288" viewBox="0 0 308.844 110.288"><g fill="#FFF"><path d="M98.254 74.125c-1.32 0-2.043.68-2.043 2.156v4.4c0 1.49.725 2.17 2.1 2.17 1.69 0 1.845-1.065 1.93-1.746.028-.227.17-.37.468-.37.327 0 .468.115.468.583 0 1.29-1.092 2.397-2.965 2.397-1.602 0-2.936-.823-2.936-3.036V76.28c0-2.2 1.362-3.022 2.98-3.022 1.858 0 2.92 1.092 2.92 2.37 0 .467-.14.566-.467.566-.326 0-.454-.156-.468-.355-.028-.608-.298-1.715-1.986-1.715zM115.58 80.68v-4.398c0-2.2 1.29-3.022 2.95-3.022 1.66 0 2.952.823 2.952 3.022v4.398c0 2.213-1.29 3.036-2.95 3.036-1.66 0-2.952-.823-2.952-3.036zm4.966-4.398c0-1.475-.752-2.156-2.015-2.156-1.26 0-2.014.68-2.014 2.156v4.398c0 1.49.752 2.17 2.015 2.17 1.264 0 2.016-.68 2.016-2.17v-4.398zM140.44 79.743c-.114.213-.256.298-.384.298s-.255-.084-.37-.297l-2.34-4.497v8.015c0 .242-.24.37-.468.37-.24 0-.468-.128-.468-.37v-9.546c0-.34.227-.454.468-.454.34 0 .567.298.752.652l2.44 4.71 2.44-4.71c.184-.355.41-.652.752-.652.255 0 .468.113.468.454v9.547c0 .242-.227.37-.468.37-.227 0-.468-.128-.468-.37V75.29l-2.355 4.455zM158.774 73.615c0-.24.213-.355.426-.355h2.326c1.59 0 2.894.41 2.894 2.412 0 1.192-.483 2.03-1.206 2.34.865.356 1.46.994 1.46 2.44v.256c0 2.156-1.233 2.922-2.808 2.922H159.2c-.27 0-.426-.17-.426-.355v-9.66zm.922 3.986h1.858c1.305 0 1.93-.48 1.93-1.83 0-1.304-.824-1.645-1.987-1.645h-1.802V77.6zm2.057 5.165c1.234 0 1.986-.638 1.986-2.1v-.24c0-1.475-.753-2.015-1.987-2.015h-2.057v4.355h2.057zM179.292 73.6c0-.24.227-.34.468-.34.227 0 .468.1.468.34v9.662c0 .24-.24.37-.468.37-.24 0-.468-.13-.468-.37v-9.66zM200.15 83.09l-3.944-7.674v7.845c0 .242-.24.37-.468.37-.24 0-.468-.128-.468-.37v-9.646c0-.255.227-.355.468-.355.34 0 .553.297.738.65l3.83 7.548v-7.86c0-.24.227-.34.468-.34.227 0 .468.1.468.34v9.662c0 .24-.24.37-.468.37-.27 0-.482-.255-.624-.54zM217.222 78.027h2.227c.226 0 .353.198.353.425 0 .185-.1.383-.354.383h-2.228v3.93h4.54c.227 0 .354.212.354.44 0 .198-.1.425-.354.425h-5.05c-.213 0-.426-.128-.426-.37v-9.646c0-.24.213-.355.426-.355h5.05c.255 0 .354.212.354.41 0 .24-.127.454-.354.454h-4.54v3.903zM98.254 95.638c-1.32 0-2.043.68-2.043 2.156v4.398c0 1.49.725 2.17 2.1 2.17 1.69 0 1.845-1.064 1.93-1.745.028-.227.17-.37.468-.37.327 0 .468.115.468.583 0 1.29-1.092 2.397-2.965 2.397-1.602 0-2.936-.823-2.936-3.036v-4.397c0-2.2 1.362-3.022 2.98-3.022 1.858 0 2.92 1.093 2.92 2.37 0 .468-.14.567-.467.567-.326 0-.454-.156-.468-.355-.028-.608-.298-1.714-1.986-1.714zM115.58 102.192v-4.398c0-2.2 1.29-3.022 2.95-3.022 1.66 0 2.952.823 2.952 3.022v4.398c0 2.213-1.29 3.036-2.95 3.036-1.66 0-2.952-.823-2.952-3.036zm4.966-4.398c0-1.475-.752-2.156-2.015-2.156-1.26 0-2.014.68-2.014 2.156v4.398c0 1.49.752 2.17 2.015 2.17 1.264 0 2.016-.68 2.016-2.17v-4.398zM140.44 101.256c-.114.213-.256.298-.384.298s-.255-.085-.37-.298l-2.34-4.497v8.014c0 .24-.24.37-.468.37-.24 0-.468-.13-.468-.37v-9.547c0-.34.227-.454.468-.454.34 0 .567.298.752.652l2.44 4.71 2.44-4.71c.184-.355.41-.652.752-.652.255 0 .468.113.468.454v9.547c0 .24-.227.37-.468.37-.227 0-.468-.13-.468-.37V96.8l-2.355 4.456zM158.66 102.192v-4.398c0-2.2 1.292-3.022 2.952-3.022s2.95.823 2.95 3.022v4.398c0 2.213-1.29 3.036-2.95 3.036-1.66 0-2.95-.823-2.95-3.036zm4.966-4.398c0-1.475-.752-2.156-2.015-2.156-1.26 0-2.014.68-2.014 2.156v4.398c0 1.49.752 2.17 2.015 2.17 1.264 0 2.016-.68 2.016-2.17v-4.398zM197.696 106.334v-1.12c-1.49-.114-2.596-.952-2.596-3.023v-4.397c0-2.2 1.29-3.022 2.95-3.022 1.66 0 2.952.824 2.952 3.023v4.398c0 2.058-1.107 2.91-2.582 3.023v1.12c0 .242-.185.356-.355.356-.185 0-.37-.114-.37-.356zm2.37-8.54c0-1.475-.753-2.156-2.016-2.156-1.262 0-2.015.68-2.015 2.156v4.398c0 1.334.61 2.015 1.66 2.128v-1.05c0-.24.184-.34.37-.34.17 0 .354.098.354.34v1.05c1.034-.128 1.644-.794 1.644-2.128v-4.398zM220.91 95.113c0-.24.227-.34.468-.34.227 0 .468.1.468.34v7.08c0 2.212-1.32 3.035-2.98 3.035-1.673 0-2.978-.823-2.978-3.036v-7.08c0-.24.24-.34.468-.34.24 0 .468.1.468.34v7.08c0 1.475.766 2.17 2.043 2.17 1.276 0 2.043-.695 2.043-2.17v-7.08zM236.846 95.113c0-.24.227-.34.468-.34.227 0 .468.1.468.34v9.66c0 .242-.24.37-.468.37-.24 0-.468-.128-.468-.37v-9.66zM257.22 102.405c0-3.15-4.71-1.617-4.71-5.08 0-2.07 1.69-2.58 3.01-2.58 1.063 0 2.382.354 2.382.864 0 .184-.156.524-.41.524-.27 0-.74-.54-1.987-.54-1.05 0-2.057.384-2.057 1.646 0 2.64 4.71 1.15 4.71 5.08 0 2.014-1.248 2.92-2.993 2.92-1.816 0-2.908-1.02-2.908-1.53 0-.228.213-.526.426-.526.37 0 .653 1.177 2.426 1.177 1.317.002 2.11-.664 2.11-1.955zM273.653 99.54h2.227c.227 0 .354.197.354.424 0 .185-.1.383-.354.383h-2.227v3.93h4.54c.227 0 .354.212.354.44 0 .198-.1.425-.354.425h-5.05c-.213 0-.426-.128-.426-.37v-9.646c0-.24.213-.355.426-.355h5.05c.255 0 .354.214.354.412 0 .24-.127.454-.354.454h-4.54v3.903zM292.81 95.113c0-.185.142-.326.354-.34h2.51c1.66 0 3.065.667 3.065 2.795 0 1.76-.98 2.525-2.214 2.738l2.185 4.2c.043.056.058.127.058.184 0 .24-.27.482-.54.482-.226 0-.382-.27-.496-.496l-2.184-4.256h-1.802v4.355c0 .24-.24.37-.468.37-.24 0-.468-.13-.468-.37v-9.662zm.937.525v3.972h1.93c1.262 0 2.127-.567 2.127-2 0-1.42-.865-1.972-2.128-1.972h-1.93z"/></g><path fill="#562338" d="M284.78 3.612c-.624 0-1.24.042-1.842.123v24.317c1.44-.425 2.967-.653 4.546-.653 1.978 0 3.873.357 5.624 1.012 3.302-2.522 5.434-6.508 5.434-10.993 0-7.626-6.162-13.808-13.76-13.808M293.107 28.413c-2.312 1.766-5.197 2.814-8.327 2.814-.625 0-1.24-.042-1.843-.123v27.954c1.44.425 2.967.653 4.546.653 8.892 0 16.1-7.232 16.1-16.155 0-6.937-4.357-12.853-10.476-15.142"/><path fill="#21000B" d="M287.483 27.4c-1.578 0-3.104.228-4.546.653v3.05c.603.082 1.218.124 1.843.124 3.13 0 6.015-1.048 8.327-2.814-1.75-.655-3.645-1.013-5.624-1.013"/><path fill="#562338" d="M282.938 3.612h-35.566v50.326c0 5.693 5.854 5.874 5.854 5.874h29.712v-.754c-6.68-1.968-11.556-8.164-11.556-15.503 0-5.748 2.992-10.795 7.5-13.66-4.65-2.215-7.86-6.97-7.86-12.476 0-7 5.188-12.782 11.917-13.685v-.123"/><path fill="#21000B" d="M282.938 3.735c-6.73.903-11.918 6.686-11.918 13.684 0 5.506 3.213 10.26 7.86 12.476 1.247-.792 2.61-1.417 4.057-1.844V3.735M278.88 29.897c-4.506 2.864-7.5 7.91-7.5 13.66 0 7.338 4.877 13.534 11.557 15.502V31.103c-1.433-.193-2.798-.607-4.057-1.207"/><path d="M282.938 28.053c-1.448.427-2.81 1.052-4.057 1.844 1.26.6 2.624 1.015 4.058 1.207v-3.05"/><path fill="#93B6C6" d="M116.56 3.692H93.52v50.35c0 5.697 5.76 5.878 5.76 5.878h17.28v-6.808l-4.74-3.23 3.806-5.817L97.64 16.59l18.92-12.893v-.005M126.732 59.926c.808.46 1.64.622 2.412.622.056 0 .112 0 .168-.003-1.05-.03-1.978-.35-2.58-.62m15.33-14.433l-8.156 12.46c-.618.943-1.307 1.572-2.015 1.973.45-.2.718-.37.718-.37l9.454-6.443v-7.62m-25.496-41.8l-.006.004V42.64l12.752-19.48-12.746-19.468"/><path fill="#5D93A4" d="M116.56 3.697L97.64 16.59l17.986 27.476.934-1.425V3.698"/><path fill="#93B6C6" d="M165.104 3.692h-23.04v.004l18.92 12.894-17.987 27.476 3.807 5.816-4.74 3.23v6.81h17.28s5.76-.182 5.76-5.878V3.692"/><path fill="#5D93A4" d="M142.997 44.066l-.934 1.426v7.62l4.74-3.23-3.806-5.816"/><path fill="#93B6C6" d="M131.892 59.926c-.603.268-1.532.588-2.58.62l.168.002c.773 0 1.604-.163 2.412-.622M116.56 45.492v7.62l9.454 6.443s.268.17.717.37c-.706-.402-1.396-1.03-2.014-1.973l-8.156-12.46m25.497-41.8l-12.745 19.47 12.752 19.478V3.697l-.007-.005"/><path fill="#5D93A4" d="M115.626 44.066l-3.807 5.816 4.74 3.23v-7.62l-.934-1.426M129.312 23.162l-12.752 19.48v2.85l8.157 12.46c.618.944 1.307 1.573 2.015 1.974.603.268 1.532.588 2.58.62 1.048-.032 1.977-.353 2.58-.62.707-.402 1.397-1.03 2.015-1.973l8.157-12.46V42.64l-12.752-19.478"/><path fill="#3B7E8C" d="M116.56 42.64l-.934 1.426.934 1.426v-2.85"/><path fill="#5D93A4" d="M142.063 3.697V42.64l.934 1.426 17.987-27.475-18.92-12.893"/><path fill="#3B7E8C" d="M142.063 42.64v2.852l.934-1.426-.934-1.425"/><path fill="#E2D8CA" d="M180.63 43.315v10.567c0 5.703 5.864 5.884 5.864 5.884h17.594v-.08c-10.447-.79-19.3-7.282-23.46-16.37m23.46-39.85h-23.46v16.452c4.16-9.09 13.013-15.58 23.46-16.37v-.082M231.853 43.315c-4.16 9.09-13.012 15.58-23.458 16.37v.08h23.458v-16.45m-5.865-39.85h-17.594v.082c10.446.79 19.3 7.28 23.458 16.37V9.35c0-5.702-5.864-5.884-5.864-5.884"/><path fill="#E2D8CA" d="M180.63 19.918c-1.63 3.563-2.54 7.524-2.54 11.698s.91 8.136 2.54 11.698V19.918m51.223 0v23.397c1.63-3.563 2.54-7.525 2.54-11.7-.002-4.173-.91-8.135-2.54-11.697M206.24 3.466c-.723 0-1.442.027-2.152.08v56.14c.71.053 1.43.08 2.153.08s1.444-.027 2.154-.08V3.545c-.71-.052-1.43-.08-2.153-.08"/><path fill="#CEBDA7" d="M204.088 3.547c-10.447.79-19.3 7.282-23.46 16.37v23.398c4.16 9.09 13.013 15.58 23.46 16.37V3.548M208.395 3.547v56.138c10.446-.79 19.3-7.28 23.458-16.37V19.918c-4.16-9.09-13.012-15.58-23.458-16.37"/><path fill="#FFF" d="M5.613 10.036v15.722c-.003.743.2 1.38.528 1.862.245.363.55.635.854.834.46.3.92.443 1.268.52.35.077.594.086.63.087h7.52v-1.61H8.917v.806l.025-.806-.01.347.015-.347h-.005l-.01.347.015-.347c-.006.004-.53-.038-.95-.274-.213-.116-.397-.268-.532-.477-.134-.21-.237-.49-.24-.942V10.036H5.613z"/><path fill="#FFF" d="M7.225 22.386V6.664c.003-.468.112-.748.253-.96.107-.16.242-.284.398-.387.233-.153.514-.248.733-.295.108-.024.2-.037.26-.044l.066-.006h.01l-.013-.29.01.29h.004l-.014-.29.01.29-.026-.806v.806h7.495V3.36h-7.52c-.065.005-.785.02-1.594.43-.402.207-.83.527-1.158 1.012-.327.482-.53 1.12-.527 1.862v15.722h1.612zM57.34 3.31h-7.52c-.066.005-.788.02-1.598.438-.403.21-.832.537-1.157 1.027-.326.488-.527 1.13-.524 1.88v6.998c-.002.75.2 1.393.525 1.88.243.368.547.645.852.847.46.304.92.45 1.27.53.352.078.596.088.634.09h.015l5.01-.017-.002-.806-.025.806.01-.353-.016.353h.006l.01-.353-.016.353c.005-.004.527.038.947.278.21.12.396.274.532.49.135.215.24.503.243.97v6.996c-.002.48-.114.772-.256.99-.11.164-.245.29-.4.395-.233.157-.514.252-.73.3-.11.024-.202.038-.262.044l-.064.006h-.01l.014.305-.01-.305h-.005l.015.304-.01-.305.025.805v-.805h-7.495v1.613h7.52c.066-.006.788-.02 1.598-.44.403-.21.832-.536 1.157-1.026.326-.488.527-1.13.524-1.88v-6.998c.002-.752-.198-1.394-.524-1.882-.243-.367-.547-.644-.852-.846-.458-.304-.92-.45-1.27-.53-.35-.078-.596-.088-.633-.09h-.014l-5.01.017.002.805.025-.806-.01.355.016-.356h-.006l-.01.355.016-.356c-.005.003-.527-.04-.947-.28-.213-.118-.398-.272-.534-.487-.135-.216-.24-.504-.243-.97V6.657c.003-.48.114-.772.256-.99.107-.164.243-.29.4-.395.23-.156.512-.25.73-.3.108-.024.2-.038.26-.044l.064-.006h.01l-.014-.3.01.3h.004l-.015-.3.008.3-.025-.807v.806h7.495V3.31h.002zM37.717 28.98V6.49c.003-.742-.2-1.38-.528-1.86-.245-.364-.55-.636-.854-.835-.46-.3-.92-.443-1.268-.52-.35-.077-.594-.086-.63-.087H29.408c-.065.006-.785.02-1.594.43-.402.207-.832.527-1.158 1.012-.328.483-.53 1.12-.528 1.862V28.98h1.613V6.492c.004-.468.113-.748.254-.96.107-.16.242-.284.398-.386.232-.153.514-.248.733-.295.11-.023.202-.036.262-.043l.065-.006h.01l-.013-.287.008.287h.005l-.014-.287.008.287-.025-.806V4.8h4.98v-.808l-.024.806.01-.355-.016.355h.005l.01-.355-.016.355c.006-.004.53.038.95.274.214.117.398.27.533.477.134.21.237.487.24.94v22.488h1.61z"/><path fill="#FFF" d="M26.934 19.336h9.993v-1.613h-9.993M78.793 28.98V6.49c.003-.742-.2-1.38-.528-1.86-.244-.364-.548-.636-.853-.835-.46-.3-.92-.443-1.268-.52-.35-.077-.594-.086-.63-.087H70.484c-.065.006-.785.02-1.594.43-.402.207-.832.527-1.158 1.012-.328.483-.53 1.12-.528 1.862V28.98h1.613V6.492c.003-.468.112-.748.253-.96.107-.16.242-.284.398-.386.232-.153.514-.248.733-.295.11-.023.203-.036.263-.043l.065-.006h.01l-.014-.29.01.29h.004l-.014-.29.01.29-.026-.807V4.8h4.98V3.99l-.024.806.01-.353-.015.352h.004l.01-.353-.015.352c.005-.004.53.038.95.274.213.117.397.27.532.477.134.21.237.488.24.94v22.49h1.61v.002z"/><path fill="#FFF" d="M68.01 19.336h9.993v-1.613H68.01"/></svg>