<svg xmlns="http://www.w3.org/2000/svg" width="308.844" height="110.288" viewBox="0 0 308.844 110.288"><path fill="#FFF" d="M98.077 74.3c-1.32 0-2.043.682-2.043 2.157v4.398c0 1.5.7 2.2 2.1 2.2 1.688 0 1.844-1.064 1.93-1.745.027-.227.17-.37.467-.37.328 0 .5.1.5.6 0 1.292-1.09 2.398-2.964 2.398-1.603 0-2.937-.823-2.937-3.036v-4.398c0-2.2 1.36-3.022 2.978-3.022 1.86 0 2.9 1.1 2.9 2.37 0 .467-.142.566-.468.566-.326 0-.454-.156-.468-.355-.037-.663-.272-1.763-1.972-1.762zM115.404 80.856v-4.398c0-2.2 1.29-3.022 2.95-3.022 1.66 0 3 .8 3 3.022v4.398c0 2.213-1.29 3.036-2.95 3.036-1.71.008-3.004-.792-3.004-3.036zm4.965-4.398c0-1.475-.753-2.156-2.016-2.156-1.262 0-2.015.68-2.015 2.156v4.398c0 1.5.8 2.2 2 2.17 1.262 0 2.014-.68 2.014-2.17v-4.398zM140.263 79.92c-.113.212-.255.297-.383.297s-.255-.085-.37-.298l-2.34-4.498v8.015c0 .24-.24.37-.468.37-.24 0-.468-.13-.468-.37V73.89c0-.34.227-.454.468-.454.34 0 .6.3.8.652l2.44 4.71 2.44-4.71c.184-.355.41-.652.752-.652.255 0 .5.1.5.454v9.547c0 .24-.227.37-.468.37-.227 0-.468-.13-.468-.37v-7.973l-2.435 4.455zM158.598 73.79c0-.24.213-.354.426-.354h2.326c1.59 0 2.9.4 2.9 2.4 0 1.192-.483 2.03-1.206 2.34.865.4 1.5 1 1.5 2.44v.256c0 2.156-1.234 2.922-2.81 2.922h-2.666c-.27 0-.426-.17-.426-.355v-9.65zm.922 3.987h1.858c1.305 0 1.93-.482 1.93-1.83 0-1.305-.824-1.646-1.987-1.646h-1.8v3.477zm2.057 5.164c1.234 0 1.986-.637 1.986-2.098V80.6c0-1.475-.752-2.015-1.986-2.015h-2.057v4.355h2.057zM179.116 73.777c0-.24.227-.34.468-.34.227 0 .5.1.5.34v9.66c0 .242-.24.37-.468.37-.24 0-.468-.128-.468-.37v-9.66zM199.973 83.267l-3.944-7.675v7.845c0 .24-.242.37-.47.37-.24 0-.467-.13-.467-.37V73.79c0-.255.227-.355.468-.355.34 0 .6.3.7.652l3.83 7.547v-7.86c0-.24.228-.34.47-.34.226 0 .5.1.5.34v9.662c0 .24-.242.37-.47.37-.262-.006-.49-.206-.59-.54zM217.045 78.203h2.227c.227 0 .4.2.4.425 0 .185-.1.383-.354.383h-2.227v3.93h4.54c.228 0 .4.2.4.44 0 .2-.098.426-.353.426h-5.05c-.213 0-.426-.128-.426-.37V73.79c0-.24.214-.355.427-.355h5.05c.255 0 .4.2.4.41 0 .242-.127.455-.354.455h-4.54v3.903zM98.077 95.814c-1.32 0-2.043.68-2.043 2.156v4.398c0 1.5.7 2.2 2.1 2.2 1.688 0 1.844-1.064 1.93-1.745.027-.227.17-.37.467-.37.328 0 .5.1.5.6 0 1.292-1.09 2.398-2.964 2.398-1.603 0-2.937-.822-2.937-3.035V97.97c0-2.2 1.36-3.022 2.978-3.022 1.86 0 2.9 1.1 2.9 2.37 0 .467-.142.566-.468.566-.326 0-.454-.156-.468-.355-.037-.63-.272-1.73-1.972-1.716zM115.404 102.368V97.97c0-2.2 1.29-3.022 2.95-3.022 1.66 0 3 .8 3 3.022v4.398c0 2.213-1.29 3.036-2.95 3.036-1.71-.004-3.004-.804-3.004-3.036zM120.37 98c0-1.475-.753-2.156-2.016-2.156-1.262 0-2.015.68-2.015 2.156v4.398c0 1.5.8 2.2 2 2.2 1.262 0 2.014-.68 2.014-2.17V97.97zM140.263 101.432c-.113.213-.255.298-.383.298s-.255-.085-.37-.298l-2.34-4.497v8.015c0 .24-.24.37-.468.37-.24 0-.468-.13-.468-.37v-9.547c0-.34.227-.454.468-.454.34 0 .6.3.8.65l2.44 4.71 2.44-4.71c.184-.354.41-.65.752-.65.255 0 .5.1.5.453v9.547c0 .24-.227.37-.468.37-.227 0-.468-.13-.468-.37v-7.973l-2.435 4.455zM158.484 102.368V97.97c0-2.2 1.29-3.022 2.95-3.022 1.66 0 3 .8 3 3.022v4.398c0 2.213-1.29 3.036-2.95 3.036-1.71-.004-2.984-.804-2.984-3.036zM163.45 98c0-1.475-.753-2.156-2.016-2.156-1.262 0-2.015.68-2.015 2.156v4.398c0 1.5.8 2.2 2 2.2 1.262 0 2.014-.68 2.014-2.17V97.97zM197.52 106.51v-1.12c-1.49-.114-2.597-.952-2.597-3.023V97.97c0-2.2 1.29-3.022 2.95-3.022 1.66 0 3 .8 3 3.022v4.398c0 2.057-1.106 2.908-2.58 3.022v1.12c0 .242-.186.356-.356.4-.234-.01-.437-.11-.437-.4zm2.368-8.54c0-1.475-.752-2.156-2.015-2.156-1.262 0-2.015.68-2.015 2.156v4.398c0 1.3.6 2 1.7 2.128v-1.05c0-.24.184-.34.37-.34.17 0 .4.1.4.34v1.05c1.034-.128 1.644-.794 1.644-2.128V97.97zM220.733 95.29c0-.242.227-.34.468-.34.228 0 .5.1.5.34v7.078c0 2.213-1.318 3.036-2.978 3.036-1.674 0-2.98-.823-2.98-3.036v-7.08c0-.24.242-.34.47-.34.24 0 .5.1.5.34v7.08c0 1.5.8 2.2 2 2.17 1.275 0 2.042-.695 2.042-2.17v-7.08zM236.67 95.29c0-.242.226-.34.467-.34.227 0 .5.1.5.34v9.66c0 .24-.24.37-.468.37-.242 0-.47-.13-.47-.37v-9.66zM257.044 102.58c0-3.148-4.71-1.616-4.71-5.078 0-2.07 1.688-2.582 3.008-2.582 1.064 0 2.4.4 2.4.865 0 .185-.156.525-.41.525-.27 0-.74-.54-1.987-.54-1.05 0-2.057.384-2.057 1.647 0 2.6 4.7 1.1 4.7 5.08 0 2.014-1.248 2.92-2.993 2.9-1.816 0-2.908-1.022-2.908-1.533 0-.227.213-.525.426-.525.37 0 .7 1.2 2.4 1.2 1.337-.04 2.087-.64 2.087-1.96zM273.477 99.715h2.227c.227 0 .4.2.4.425 0 .185-.1.383-.354.383h-2.227v3.93h4.54c.227 0 .4.2.4.44 0 .198-.1.425-.354.425h-5.05c-.214 0-.427-.128-.427-.37v-9.646c0-.24.213-.355.426-.355h5.05c.254 0 .4.2.4.41 0 .242-.128.455-.355.455h-4.54v3.903zM292.634 95.29c0-.186.142-.327.354-.34h2.51c1.66 0 3.1.7 3.1 2.8 0 1.758-.978 2.524-2.212 2.737l2.185 4.2c.043.1.1.1.1.184 0 .242-.268.483-.538.5-.227 0-.383-.268-.497-.495l-2.184-4.256h-1.8v4.354c0 .24-.242.37-.47.37-.24 0-.467-.13-.467-.37V95.29zm.936.524v3.972h1.93c1.262 0 2.127-.567 2.127-2 0-1.42-.865-1.972-2.128-1.972h-1.93z"/><path fill="#FCB245" d="M284.604 3.85c-.625 0-1.24.04-1.843.122V28.29c1.442-.426 2.968-.654 4.546-.654 1.978 0 3.9.4 5.6 1.013 3.302-2.523 5.434-6.51 5.434-10.994C298.365 10 292.2 3.8 284.6 3.8"/><path fill="#FCB245" d="M292.93 28.65c-2.31 1.765-5.196 2.813-8.326 2.813-.625 0-1.24-.042-1.843-.123v27.955c1.442.4 3 .7 4.5.653 8.894 0 16.102-7.233 16.102-16.156C303.408 36.9 299.1 30.9 292.9 28.6"/><path fill="#F68924" d="M287.307 27.636c-1.578 0-3.104.228-4.545.653v3.05c.603.1 1.2.1 1.8.1 3.13 0 6.015-1.048 8.327-2.814-1.71-.626-3.59-1.026-5.59-1.026"/><path fill="#FCB245" d="M282.76 3.85h-35.566v50.325c0 5.7 5.9 5.9 5.9 5.874h29.712v-.755c-6.68-1.968-11.556-8.164-11.556-15.503 0-5.748 2.992-10.795 7.5-13.66-4.65-2.215-7.86-6.97-7.86-12.476 0-7 5.188-12.78 11.917-13.684V3.85"/><path fill="#F68924" d="M282.76 3.972c-6.728.903-11.917 6.686-11.917 13.684 0 5.5 3.2 10.3 7.9 12.5 1.247-.792 2.61-1.417 4.057-1.844V3.972"/><path fill="#F68924" d="M278.704 30.133c-4.506 2.864-7.5 7.91-7.5 13.66 0 7.3 4.9 13.5 11.6 15.502V31.34c-1.477-.24-2.804-.64-4.104-1.24"/><path fill="#F36E22" d="M282.76 28.29c-1.447.426-2.81 1.05-4.056 1.843 1.26.6 2.6 1 4.1 1.207v-3.05"/><path fill="#716558" d="M116.383 3.93h-23.04v50.35c0 5.7 5.8 5.9 5.8 5.877h17.28V53.35l-4.74-3.232 3.806-5.816-18.027-27.475 18.92-12.894V3.93"/><path fill="#716558" d="M126.555 60.162c.808.5 1.6.6 2.4.622.056 0 .112 0 .168-.003-1.036.02-1.923-.38-2.523-.58m15.287-14.47l-8.157 12.46c-.617.942-1.307 1.57-2.014 2 .45-.2.717-.37.717-.37l9.455-6.444V45.73M116.39 3.93l-.006.003v38.944l12.752-19.48L116.39 3.9"/><path fill="#3C342B" d="M116.4 3.9L97.5 16.8l18 27.5.9-1.4v-39"/><path fill="#716558" d="M164.927 3.93h-23.04v.004l18.92 12.894-17.987 27.475 3.807 5.816-4.74 3.23v6.808h17.28s5.76-.18 5.76-5.877V3.93"/><path fill="#3C342B" d="M142.8 44.3l-.9 1.4v7.6l4.7-3.2-3.8-5.8"/><path fill="#716558" d="M131.716 60.162c-.603.268-1.532.588-2.58.62h.2c.74.018 1.564-.182 2.364-.582m-15.317-14.47v7.62l9.454 6.442s.3.2.7.4c-.707-.402-1.397-1.03-2.015-1.973l-8.14-12.52M141.88 3.93l-12.745 19.468 12.752 19.48V3.932l-.007-.033"/><path fill="#3C342B" d="M115.5 44.3l-3.9 5.8 4.8 3.2v-7.6l-.9-1.4"/><path fill="#3C342B" d="M129.135 23.398l-12.752 19.48v2.85l8.157 12.46c.618.9 1.3 1.6 2 2 .603.3 1.5.6 2.6.62 1.05-.032 1.978-.352 2.58-.62.708-.402 1.398-1.03 2.015-1.973l8.157-12.46v-2.852L129.135 23.4"/><path fill="#201B16" d="M116.4 42.9l-.9 1.4.9 1.4v-2.8"/><path fill="#3C342B" d="M141.9 3.9v39l.9 1.4 18-27.5-18.9-12.9"/><path fill="#201B16" d="M141.9 42.9v2.8l.9-1.4-.9-1.4"/><path fill="#94BFB7" d="M180.453 43.55V54.12c0 5.7 5.9 5.9 5.9 5.885h17.594v-.08C193.465 59.1 184.6 52.6 180.5 43.6m23.41-39.897h-23.457v16.452c4.16-9.09 13.012-15.58 23.458-16.37v-.082M231.676 43.552c-4.16 9.09-13.012 15.58-23.458 16.37v.08h23.458v-16.45m-5.864-39.85h-17.594v.082c10.447.8 19.3 7.3 23.5 16.37V9.587C231.676 3.9 225.8 3.7 225.8 3.7"/><path fill="#94BFB7" d="M180.453 20.154c-1.63 3.563-2.538 7.524-2.538 11.698 0 4.2.9 8.1 2.5 11.698V20.154m51.26 0V43.55c1.63-3.562 2.54-7.523 2.54-11.698 0-4.152-.915-8.152-2.515-11.652M206.065 3.7c-.724 0-1.443.027-2.153.08v56.14c.71.1 1.4.1 2.2.08s1.443-.027 2.153-.08V3.783C207.508 3.7 206.8 3.7 206.1 3.7"/><path fill="#59A08F" d="M203.91 3.784c-10.446.79-19.3 7.282-23.457 16.37v23.398c4.16 9.1 13 15.6 23.5 16.4V3.784M208.218 3.784v56.138c10.447-.79 19.3-7.28 23.458-16.37V20.154C227.518 11.1 218.7 4.6 208.2 3.8"/><path fill="#FFF" d="M5.436 10.273v15.722c-.003.7.2 1.4.5 1.862.244.4.5.6.9.8.46.3.9.4 1.3.52.35.1.6.1.6.087h7.519V27.65H8.76v.807l.026-.806-.01.348.015-.347h-.004l-.01.348.015-.347c-.005.005-.53-.037-.95-.273-.213-.117-.397-.27-.532-.477-.134-.21-.237-.488-.24-.94V10.272H5.436z"/><path fill="#FFF" d="M7.05 22.622V6.902c.002-.47.11-.75.252-.962.107-.14.198-.24.398-.34.232-.2.5-.3.7-.34.11-.025.202-.038.262-.045l.098-.006.01-.002-.014-.288.01.29h.004l-.014-.29.01.29L8.74 4.4v.806h7.496V3.596h-7.52c-.065.006-.785.02-1.594.4C6.72 4.2 6.3 4.6 6 5.038c-.328.483-.53 1.12-.528 1.862v15.722H7.05zM57.164 3.546h-7.52c-.066.006-.788.02-1.598.44-.403.21-.832.536-1.157 1-.327.487-.528 1.13-.525 1.88v6.997c-.003.8.2 1.4.5 1.88.243.4.5.6.9.8.46.3.9.5 1.3.53.35.1.6.1.6.09h.014l5.01-.016-.003-.806-.047.86.01-.353-.016.353h.006l.01-.353-.016.353c.005-.004.5 0 .9.3.212.1.4.3.5.488.135.2.2.5.2.97v6.997c-.002.48-.114.772-.256 1-.108.163-.244.29-.4.394-.232.155-.513.25-.73.298-.11.024-.2.038-.26.044h-.075l.014.305-.01-.305h-.005l.015.304-.01-.305.025.807v-.806h-7.495v1.614h7.52c.066-.006.788-.02 1.598-.44.403-.21.832-.536 1.157-1.026.326-.488.527-1.13.524-1.88V18.96c.003-.75-.198-1.393-.524-1.88-.243-.368-.547-.645-.852-.847-.46-.304-.92-.45-1.27-.53-.352-.078-.597-.088-.634-.09h-.014l-5.01.017.002.806.025-.806-.012.356.017-.356h-.006l-.012.356.017-.356c-.005.004-.527-.038-.947-.278-.212-.12-.397-.273-.533-.488-.135-.216-.24-.504-.243-.97v-7c.003-.48.114-.773.256-.992.108-.163.244-.29.4-.394.232-.156.513-.25.73-.3.11-.024.2-.038.26-.044l.065-.006h.01l.112-.298.01.298h.004l-.015-.298.01.298-.026-.806v.806h7.494V3.546zM37.54 29.215V6.727c.004-.743-.2-1.38-.527-1.862-.244-.363-.548-.635-.853-.834-.46-.298-.92-.442-1.268-.52-.35-.076-.594-.085-.63-.086H29.232c-.065.006-.785.02-1.594.43-.402.207-.832.527-1.158 1.012-.328.483-.53 1.12-.528 1.862v22.488h1.613V6.728c.003-.468.112-.748.253-.96.107-.16.242-.284.398-.386.232-.153.514-.248.733-.295.108-.024.2-.037.26-.044l.066-.006h.01l-.013-.288.01.286h.004l-.014-.287.01.3-.026-.807v.806h4.98v-.82l-.024.805.01-.355-.015.355h.005l.01-.355-.015.4c.006-.004.5 0 1 .274.213.1.4.3.5.477.134.2.2.5.2.942V29.26h1.633v-.045z"/><path fill="#FFF" d="M26.8 19.6h10V18h-10M78.617 29.215V6.727c.003-.743-.2-1.38-.528-1.862C77.844 4.5 77.5 4.2 77.2 4c-.46-.3-.92-.443-1.268-.52-.35-.077-.594-.086-.63-.087H70.272c-.065.006-.785.02-1.594.43-.368.277-.778.577-1.078 1.042-.328.483-.53 1.12-.528 1.862v22.488h1.613V6.727c.003-.468.112-.748.253-.96.107-.16.242-.284.398-.386.232-.152.514-.247.733-.294.108-.024.2-.037.26-.044l.066-.006h.01l-.013-.29.01.29h.004l-.014-.288.01.3-.026-.806v.806h4.98v-.82l-.024.807.01-.353-.015.352h.005l.01-.353-.015.4c.006-.003.5 0 1 .275.213.1.4.3.5.477.134.2.2.5.2.94v22.49h1.59v-.047z"/><path fill="#FFF" d="M67.8 19.6h10V18h-10"/></svg>