<svg xmlns="http://www.w3.org/2000/svg" width="308.844" height="110.288" viewBox="0 0 308.844 110.288"><g fill="#FFF"><path d="M98.254 74.125c-1.32 0-2.043.68-2.043 2.156v4.4c0 1.49.725 2.17 2.1 2.17 1.69 0 1.845-1.065 1.93-1.746.028-.227.17-.37.468-.37.327 0 .468.115.468.583 0 1.29-1.092 2.397-2.965 2.397-1.602 0-2.936-.823-2.936-3.036V76.28c0-2.2 1.362-3.022 2.98-3.022 1.858 0 2.92 1.092 2.92 2.37 0 .467-.14.566-.467.566-.326 0-.454-.156-.468-.355-.028-.608-.298-1.715-1.986-1.715zM115.58 80.68v-4.4c0-2.198 1.29-3.02 2.95-3.02 1.66 0 2.952.822 2.952 3.02v4.4c0 2.212-1.29 3.035-2.95 3.035-1.66 0-2.952-.822-2.952-3.036zm4.966-4.398c0-1.475-.752-2.156-2.015-2.156-1.26 0-2.014.68-2.014 2.156v4.398c0 1.49.752 2.17 2.015 2.17s2.016-.68 2.016-2.17v-4.398zM140.44 79.743c-.114.213-.256.298-.384.298s-.255-.084-.37-.297l-2.34-4.497v8.015c0 .242-.24.37-.468.37-.24 0-.468-.128-.468-.37v-9.546c0-.34.227-.454.468-.454.34 0 .567.298.752.652l2.44 4.71 2.44-4.71c.184-.355.41-.652.752-.652.255 0 .468.113.468.454v9.547c0 .242-.227.37-.468.37-.227 0-.468-.128-.468-.37V75.29l-2.355 4.455zM158.774 73.615c0-.24.213-.355.426-.355h2.326c1.59 0 2.894.41 2.894 2.412 0 1.192-.483 2.03-1.206 2.34.865.356 1.46.994 1.46 2.44v.256c0 2.156-1.233 2.922-2.808 2.922H159.2c-.27 0-.426-.17-.426-.355v-9.66zm.922 3.986h1.858c1.305 0 1.93-.48 1.93-1.83 0-1.304-.824-1.645-1.987-1.645h-1.802V77.6zm2.057 5.165c1.234 0 1.986-.638 1.986-2.1v-.24c0-1.475-.753-2.015-1.987-2.015h-2.057v4.355h2.057zM179.292 73.6c0-.24.227-.34.468-.34.227 0 .468.1.468.34v9.662c0 .24-.24.37-.468.37-.24 0-.468-.13-.468-.37v-9.66zM200.15 83.09l-3.944-7.674v7.845c0 .242-.24.37-.468.37-.24 0-.468-.128-.468-.37v-9.646c0-.255.227-.355.468-.355.34 0 .553.297.738.65l3.83 7.548v-7.86c0-.24.227-.34.468-.34.227 0 .468.1.468.34v9.662c0 .24-.24.37-.468.37-.27 0-.482-.255-.624-.54zM217.222 78.027h2.227c.226 0 .353.198.353.425 0 .185-.1.383-.354.383h-2.228v3.93h4.54c.227 0 .354.212.354.44 0 .198-.1.425-.354.425h-5.05c-.213 0-.426-.128-.426-.37v-9.646c0-.24.213-.355.426-.355h5.05c.255 0 .354.212.354.41 0 .24-.127.454-.354.454h-4.54v3.903zM98.254 95.638c-1.32 0-2.043.68-2.043 2.156v4.398c0 1.49.725 2.17 2.1 2.17 1.69 0 1.845-1.064 1.93-1.745.028-.227.17-.37.468-.37.327 0 .468.115.468.583 0 1.29-1.092 2.397-2.965 2.397-1.602 0-2.936-.823-2.936-3.036v-4.397c0-2.2 1.362-3.022 2.98-3.022 1.858 0 2.92 1.093 2.92 2.37 0 .468-.14.567-.467.567-.326 0-.454-.156-.468-.355-.028-.608-.298-1.714-1.986-1.714zM115.58 102.192v-4.398c0-2.2 1.29-3.022 2.95-3.022 1.66 0 2.952.823 2.952 3.022v4.398c0 2.213-1.29 3.036-2.95 3.036-1.66 0-2.952-.823-2.952-3.036zm4.966-4.398c0-1.475-.752-2.156-2.015-2.156-1.26 0-2.014.68-2.014 2.156v4.398c0 1.49.752 2.17 2.015 2.17s2.016-.68 2.016-2.17v-4.398zM140.44 101.256c-.114.213-.256.298-.384.298s-.255-.085-.37-.298l-2.34-4.497v8.014c0 .24-.24.37-.468.37-.24 0-.468-.13-.468-.37v-9.547c0-.34.227-.454.468-.454.34 0 .567.298.752.652l2.44 4.71 2.44-4.71c.184-.355.41-.652.752-.652.255 0 .468.113.468.454v9.547c0 .24-.227.37-.468.37-.227 0-.468-.13-.468-.37V96.8l-2.355 4.456zM158.66 102.192v-4.398c0-2.2 1.29-3.022 2.95-3.022s2.952.823 2.952 3.022v4.398c0 2.213-1.29 3.036-2.95 3.036-1.66 0-2.952-.823-2.952-3.036zm4.966-4.398c0-1.475-.752-2.156-2.015-2.156-1.26 0-2.014.68-2.014 2.156v4.398c0 1.49.752 2.17 2.015 2.17s2.016-.68 2.016-2.17v-4.398zM197.696 106.334v-1.12c-1.49-.114-2.596-.952-2.596-3.023v-4.397c0-2.2 1.29-3.022 2.95-3.022s2.952.824 2.952 3.023v4.398c0 2.058-1.107 2.91-2.582 3.023v1.12c0 .242-.185.356-.355.356-.185 0-.37-.114-.37-.356zm2.37-8.54c0-1.475-.753-2.156-2.016-2.156-1.262 0-2.015.68-2.015 2.156v4.398c0 1.334.61 2.015 1.66 2.128v-1.05c0-.24.184-.34.37-.34.17 0 .354.098.354.34v1.05c1.034-.128 1.644-.794 1.644-2.128v-4.398zM220.91 95.113c0-.24.227-.34.468-.34.227 0 .468.1.468.34v7.08c0 2.212-1.32 3.035-2.98 3.035-1.673 0-2.978-.823-2.978-3.036v-7.08c0-.24.24-.34.468-.34.24 0 .468.1.468.34v7.08c0 1.475.766 2.17 2.043 2.17 1.276 0 2.043-.695 2.043-2.17v-7.08zM236.846 95.113c0-.24.227-.34.468-.34.227 0 .468.1.468.34v9.66c0 .242-.24.37-.468.37-.24 0-.468-.128-.468-.37v-9.66zM257.22 102.405c0-3.15-4.71-1.617-4.71-5.08 0-2.07 1.69-2.58 3.01-2.58 1.063 0 2.382.354 2.382.864 0 .184-.156.524-.41.524-.27 0-.74-.54-1.987-.54-1.05 0-2.057.384-2.057 1.646 0 2.64 4.71 1.15 4.71 5.08 0 2.014-1.248 2.92-2.993 2.92-1.816 0-2.908-1.02-2.908-1.53 0-.228.213-.526.426-.526.37 0 .653 1.177 2.426 1.177 1.317.002 2.11-.664 2.11-1.955zM273.653 99.54h2.227c.227 0 .354.197.354.424 0 .185-.1.383-.354.383h-2.227v3.93h4.54c.227 0 .354.212.354.44 0 .198-.1.425-.354.425h-5.05c-.213 0-.426-.128-.426-.37v-9.646c0-.24.213-.355.426-.355h5.05c.255 0 .354.214.354.412 0 .24-.127.454-.354.454h-4.54v3.903zM292.81 95.113c0-.185.142-.326.354-.34h2.51c1.66 0 3.065.667 3.065 2.795 0 1.76-.98 2.525-2.214 2.738l2.185 4.2c.043.056.058.127.058.184 0 .24-.27.482-.54.482-.226 0-.382-.27-.496-.496l-2.184-4.256h-1.802v4.355c0 .24-.24.37-.468.37-.24 0-.468-.13-.468-.37v-9.662zm.936.525v3.972h1.93c1.262 0 2.127-.567 2.127-2 0-1.42-.865-1.972-2.128-1.972h-1.93z"/></g><path fill="#C3996B" d="M284.78 3.643c-.624 0-1.24.042-1.842.123v24.317c1.44-.425 2.967-.653 4.545-.653 1.978 0 3.874.358 5.625 1.013 3.302-2.522 5.434-6.508 5.434-10.993 0-7.625-6.162-13.807-13.76-13.807M293.108 28.444c-2.312 1.766-5.197 2.814-8.327 2.814-.624 0-1.24-.042-1.842-.123V59.09c1.44.425 2.967.653 4.545.653 8.893 0 16.1-7.233 16.1-16.156 0-6.938-4.356-12.854-10.475-15.143"/><path fill="#9E6E44" d="M287.483 27.43c-1.578 0-3.104.23-4.545.654v3.052c.603.08 1.218.123 1.843.123 3.13 0 6.016-1.05 8.328-2.815-1.75-.656-3.647-1.014-5.625-1.014"/><path fill="#C3996B" d="M282.938 3.643H247.37V53.97c0 5.693 5.855 5.874 5.855 5.874h29.712v-.754c-6.68-1.968-11.556-8.164-11.556-15.503 0-5.748 2.993-10.795 7.5-13.66-4.65-2.216-7.86-6.97-7.86-12.476 0-6.998 5.188-12.78 11.917-13.684v-.123"/><path fill="#9E6E44" d="M282.938 3.766c-6.73.904-11.918 6.686-11.918 13.685 0 5.508 3.213 10.26 7.86 12.478 1.247-.792 2.61-1.418 4.057-1.844V3.766"/><path fill="#9E6E44" d="M278.88 29.928c-4.506 2.864-7.498 7.91-7.498 13.66 0 7.338 4.877 13.534 11.556 15.502V31.135c-1.434-.192-2.8-.607-4.058-1.207"/><path fill="#86553C" d="M282.938 28.084c-1.448.427-2.81 1.052-4.057 1.844 1.26.6 2.624 1.015 4.058 1.207v-3.05"/><path fill="#C5579F" d="M116.56 3.723H93.52v50.35c0 5.697 5.76 5.878 5.76 5.878h17.28v-6.807l-4.74-3.23 3.807-5.817L97.64 16.622l18.92-12.894v-.005M126.73 59.957c.81.46 1.64.622 2.413.622.056 0 .112-.002.168-.004-1.047-.03-1.976-.35-2.58-.62m15.333-14.433l-8.157 12.46c-.618.943-1.307 1.572-2.014 1.973.45-.2.717-.37.717-.37l9.454-6.443v-7.62m-25.498-41.8l-.006.004V42.67l12.752-19.478-12.746-19.47"/><path fill="#A82E90" d="M116.56 3.728L97.64 16.622l17.986 27.475.934-1.425V3.728"/><path fill="#C5579F" d="M165.103 3.723h-23.04v.004l18.92 12.894-17.987 27.477 3.807 5.816-4.74 3.23v6.81h17.28s5.76-.182 5.76-5.878V3.723"/><path fill="#A82E90" d="M142.997 44.097l-.934 1.426v7.62l4.74-3.23-3.806-5.816"/><path fill="#C5579F" d="M131.892 59.957c-.603.268-1.532.588-2.58.62l.168.002c.773 0 1.604-.164 2.412-.623M116.56 45.523v7.62l9.455 6.443s.268.17.717.37c-.707-.402-1.397-1.03-2.014-1.973l-8.158-12.46m25.497-41.8l-12.745 19.47 12.752 19.478V3.73l-.007-.005"/><path fill="#A82E90" d="M115.626 44.097l-3.807 5.816 4.74 3.23v-7.62l-.934-1.426M129.312 23.193l-12.752 19.48v2.85l8.157 12.46c.618.944 1.307 1.573 2.014 1.974.604.268 1.533.588 2.58.62 1.05-.033 1.98-.353 2.58-.62.708-.402 1.398-1.03 2.015-1.973l8.157-12.46v-2.852l-12.75-19.48"/><path fill="#92298F" d="M116.56 42.672l-.934 1.425.934 1.426v-2.85"/><path fill="#A82E90" d="M142.063 3.728v38.944l.934 1.425 17.987-27.475-18.92-12.894"/><path fill="#92298F" d="M142.063 42.672v2.85l.934-1.425-.934-1.425"/><path fill="#5A4969" d="M180.63 43.346v10.567c0 5.703 5.864 5.884 5.864 5.884h17.594v-.08c-10.447-.79-19.3-7.282-23.46-16.37m23.46-39.85H180.63V19.95c4.16-9.09 13.012-15.582 23.458-16.372v-.08M231.853 43.346c-4.16 9.09-13.012 15.58-23.458 16.37v.082h23.458V43.346m-5.865-39.85h-17.594v.082c10.447.79 19.3 7.282 23.458 16.37V9.383c0-5.703-5.864-5.885-5.864-5.885"/><path fill="#5A4969" d="M231.853 19.95v23.396c1.63-3.563 2.538-7.524 2.538-11.698s-.907-8.136-2.537-11.7m-51.224 0c-1.63 3.564-2.54 7.525-2.54 11.7s.91 8.135 2.54 11.697V19.95m25.61-16.453c-.723 0-1.442.027-2.152.08v56.14c.71.053 1.43.08 2.153.08s1.444-.027 2.154-.08V3.576c-.71-.052-1.43-.08-2.153-.08"/><path fill="#2D233F" d="M204.088 3.578c-10.447.79-19.3 7.282-23.458 16.37v23.398c4.16 9.09 13.012 15.58 23.458 16.37V3.58M208.394 3.578v56.138c10.447-.79 19.3-7.282 23.458-16.37V19.948c-4.158-9.09-13.01-15.582-23.458-16.372"/><path fill="#FFF" d="M5.612 10.067V25.79c-.003.742.2 1.38.528 1.86.244.364.548.636.853.835.46.3.92.443 1.268.52.35.078.595.087.63.088h7.521V27.48H8.917v.806l.025-.806-.01.347.016-.347H8.94l-.01.347.016-.347c-.006.004-.53-.038-.95-.274-.212-.115-.396-.267-.53-.476-.135-.21-.238-.488-.24-.94V10.066H5.61z"/><path fill="#FFF" d="M7.225 22.417V6.695c.003-.468.112-.748.253-.96.107-.16.242-.284.398-.386.233-.155.514-.25.733-.297.108-.024.2-.037.26-.044l.066-.007h.01l-.013-.29.01.29h.004l-.014-.29.01.29-.026-.806v.806h7.495V3.39h-7.52c-.065.006-.785.02-1.594.43-.402.208-.83.528-1.158 1.013-.328.482-.53 1.12-.528 1.862v15.722h1.613zM57.34 3.34h-7.52c-.066.006-.788.02-1.598.44-.403.21-.832.536-1.157 1.026-.326.488-.527 1.13-.524 1.88v6.998c-.002.75.2 1.393.525 1.88.243.368.547.645.852.847.46.305.92.452 1.27.53.352.08.597.09.634.09h.015l5.01-.016-.002-.806-.025.806.01-.353-.016.354h.006l.01-.353-.016.354c.005-.004.527.038.947.278.21.12.396.273.532.488.135.216.24.504.243.97v6.997c-.003.48-.114.772-.256.99-.11.164-.245.29-.4.395-.233.156-.514.25-.73.3-.11.023-.202.037-.262.043l-.064.006-.01.002.014.304-.01-.305h-.005l.015.305-.01-.305.025.806v-.806h-7.495v1.613h7.52c.066-.006.788-.02 1.598-.44.403-.21.832-.536 1.157-1.026.326-.488.527-1.13.524-1.88V18.75c.003-.75-.198-1.393-.524-1.88-.243-.368-.547-.645-.852-.847-.458-.304-.92-.45-1.27-.53-.35-.078-.596-.088-.633-.09h-.014l-5.01.017.002.806.025-.806-.01.356.016-.356h-.006l-.01.356.016-.356c-.005.004-.527-.038-.947-.278-.213-.12-.398-.273-.534-.488-.135-.216-.24-.504-.243-.97V6.688c.003-.48.114-.772.256-.99.107-.164.243-.29.4-.395.23-.156.512-.25.73-.3.108-.024.2-.038.26-.044l.064-.007h.01l-.014-.3.01.3h.004l-.015-.3.008.3-.025-.807v.806h7.495V3.34h.002zM37.717 29.01V6.522c.003-.743-.2-1.38-.528-1.862-.245-.363-.55-.635-.854-.834-.46-.3-.92-.443-1.268-.52-.35-.078-.594-.087-.63-.088H29.408c-.065.006-.785.02-1.594.43-.402.207-.832.527-1.158 1.012-.328.483-.53 1.12-.528 1.862V29.01h1.613V6.522c.004-.468.113-.748.254-.96.107-.16.242-.284.398-.386.232-.153.514-.248.733-.295.11-.023.202-.036.262-.043l.065-.006h.01l-.013-.287.008.287h.005l-.014-.287.008.287-.025-.806v.806h4.98v-.807l-.024.806.01-.356-.016.355h.005l.01-.356-.016.355c.006-.005.53.037.95.273.214.117.398.27.533.477.134.21.237.488.24.94v22.49h1.61z"/><path fill="#FFF" d="M26.933 19.367h9.994v-1.613h-9.994M78.793 29.01V6.522c.003-.743-.2-1.38-.528-1.862-.244-.363-.548-.635-.853-.834-.46-.3-.92-.443-1.268-.52-.35-.078-.594-.087-.63-.088H70.484c-.065.006-.785.02-1.594.43-.402.207-.832.527-1.158 1.012-.328.483-.53 1.12-.528 1.862V29.01h1.613V6.522c.003-.468.112-.748.253-.96.107-.16.242-.284.398-.386.232-.153.514-.248.733-.295.11-.023.203-.036.263-.043l.065-.006h.01l-.013-.288.01.29h.004l-.015-.29.01.29-.026-.806v.804h4.98v-.807l-.025.806.01-.354-.015.352h.005l.01-.353-.015.352c.006-.004.53.038.95.274.214.118.398.27.533.478.134.21.237.488.24.94V29.01h1.61z"/><path fill="#FFF" d="M68.01 19.367h9.993v-1.613H68.01"/></svg>