<svg xmlns="http://www.w3.org/2000/svg" width="308.844" height="110.288" viewBox="0 0 308.844 110.288"><path fill="#33636A" d="M284.968 3.533c-.626 0-1.242.042-1.846.123V28.01c1.443-.426 2.97-.655 4.552-.655 1.98 0 3.88.36 5.633 1.015 3.307-2.526 5.442-6.517 5.442-11.01 0-7.636-6.17-13.827-13.782-13.827M293.307 28.37c-2.315 1.768-5.205 2.818-8.34 2.818-.625 0-1.24-.042-1.845-.123V59.06c1.443.425 2.97.654 4.552.654 8.905 0 16.125-7.244 16.125-16.18 0-6.947-4.365-12.872-10.493-15.164"/><path fill="#043537" d="M287.675 27.355c-1.58 0-3.108.228-4.552.654v3.055c.604.08 1.22.123 1.846.123 3.133 0 6.023-1.05 8.338-2.818-1.754-.656-3.652-1.015-5.633-1.015"/><path fill="#33636A" d="M283.123 3.533h-35.618v50.4c0 5.7 5.863 5.882 5.863 5.882h29.755v-.755c-6.69-1.97-11.573-8.176-11.573-15.525 0-5.756 2.996-10.81 7.51-13.68-4.655-2.22-7.873-6.98-7.873-12.494 0-7.008 5.197-12.798 11.935-13.703v-.124"/><path fill="#043537" d="M283.123 3.656c-6.738.905-11.935 6.696-11.935 13.704 0 5.515 3.217 10.275 7.872 12.495 1.25-.794 2.613-1.42 4.063-1.847V3.656"/><path fill="#043537" d="M279.06 29.855c-4.513 2.868-7.51 7.922-7.51 13.68 0 7.348 4.885 13.553 11.574 15.524V31.064c-1.437-.193-2.804-.608-4.064-1.21"/><path fill="#001C1B" d="M283.123 28.01c-1.45.426-2.814 1.052-4.063 1.846 1.26.6 2.627 1.016 4.063 1.21v-3.057"/><path fill="#6FBCD1" d="M116.505 3.613H93.43v50.424c0 5.704 5.77 5.885 5.77 5.885h17.304v-6.818l-4.747-3.235 3.813-5.825L97.557 16.53l18.947-12.912v-.005M126.69 59.927c.81.46 1.642.624 2.417.624.056 0 .112 0 .168-.002-1.05-.032-1.982-.353-2.585-.62m15.355-14.455l-8.17 12.478c-.617.945-1.307 1.574-2.015 1.976.45-.2.717-.37.717-.37l9.468-6.452v-7.63M116.51 3.613l-.005.003v39l12.77-19.507L116.51 3.613"/><path fill="#00A2B7" d="M116.505 3.618L97.557 16.53l18.013 27.516.935-1.428v-39"/><path fill="#6FBCD1" d="M165.118 3.613h-23.073v.004l18.947 12.912-18.012 27.516 3.813 5.824-4.747 3.235v6.818h17.305s5.77-.182 5.77-5.885V3.613"/><path fill="#00A2B7" d="M142.98 44.046l-.935 1.427v7.632l4.748-3.235-3.813-5.824"/><path fill="#6FBCD1" d="M131.86 59.927c-.603.268-1.535.59-2.585.62.056.003.112.004.168.004.775 0 1.608-.163 2.417-.623m-15.355-14.454v7.63l9.468 6.453s.267.17.717.37c-.708-.402-1.398-1.03-2.016-1.975l-8.17-12.477m25.535-41.86L129.274 23.11l12.77 19.507v-39l-.006-.004"/><path fill="#00A2B7" d="M115.57 44.046l-3.813 5.824 4.748 3.235v-7.632l-.935-1.427M129.275 23.11l-12.77 19.508v2.856l8.17 12.478c.617.944 1.307 1.573 2.015 1.975.603.268 1.535.59 2.585.62 1.05-.03 1.982-.352 2.585-.62.708-.402 1.398-1.03 2.016-1.975l8.17-12.478v-2.856l-12.77-19.507"/><path fill="#0093A3" d="M116.505 42.618l-.935 1.428.935 1.427v-2.855"/><path fill="#00A2B7" d="M142.045 3.618v39l.935 1.428 18.013-27.516-18.948-12.912"/><path fill="#0093A3" d="M142.045 42.618v2.855l.935-1.427-.935-1.428"/><path fill="#FBB145" d="M180.667 43.293v10.582c0 5.71 5.873 5.893 5.873 5.893h17.62v-.08c-10.462-.792-19.33-7.293-23.493-16.395M204.16 3.387h-23.493v16.475c4.165-9.102 13.03-15.603 23.492-16.394v-.08M231.964 43.293c-4.165 9.102-13.03 15.603-23.492 16.394v.08h23.492V43.294M226.09 3.387h-17.618v.08c10.462.792 19.328 7.293 23.492 16.395V9.28c0-5.71-5.873-5.893-5.873-5.893M231.964 19.862v23.43c1.632-3.567 2.542-7.534 2.542-11.714s-.91-8.148-2.542-11.716m-51.297 0c-1.632 3.568-2.542 7.535-2.542 11.715s.91 8.147 2.542 11.715v-23.43m25.65-16.475c-.726 0-1.446.027-2.157.08v56.22c.71.054 1.43.08 2.156.08.725 0 1.445-.026 2.156-.08V3.467c-.71-.053-1.43-.08-2.156-.08"/><path fill="#F58824" d="M204.16 3.468c-10.463.79-19.33 7.292-23.493 16.394v23.43c4.165 9.103 13.03 15.604 23.492 16.395V3.467M208.472 3.468v56.22c10.462-.792 19.328-7.293 23.492-16.395v-23.43c-4.164-9.103-13.03-15.604-23.492-16.395"/><path fill="#FFF" d="M5.397 9.967V25.71c-.003.745.2 1.383.53 1.866.243.363.548.636.854.835.46.3.92.444 1.27.522.35.077.596.086.632.087h7.531v-1.616H8.707v.808l.025-.807-.01.348.015-.347h-.005l-.01.348.015-.347c-.006.004-.53-.038-.952-.274-.213-.117-.397-.27-.532-.478-.134-.21-.238-.49-.24-.942V9.967H5.397z"/><path fill="#FFF" d="M7.013 22.334V6.59c.003-.47.112-.75.253-.964.107-.16.243-.283.4-.386.232-.154.514-.248.733-.296.108-.023.2-.036.26-.043l.066-.005h.01l-.013-.29.01.29h.004l-.014-.29.01.29-.026-.808v.808h7.506V3.28H8.683c-.066.006-.787.02-1.597.43-.403.208-.833.53-1.16 1.014-.328.484-.53 1.12-.53 1.865v15.743h1.617zM57.2 3.23H49.67c-.067.006-.79.02-1.602.44-.403.21-.833.536-1.158 1.027-.327.49-.528 1.132-.525 1.884v7.008c-.003.752.198 1.395.525 1.884.243.368.547.645.853.848.46.305.922.452 1.272.53.35.08.596.09.634.09h.013l5.018-.016-.002-.808-.025.807.01-.354-.016.353h.006l.01-.354-.016.353c.005-.004.528.038.948.278.212.12.397.274.534.49.134.216.24.504.242.97v7.007c-.003.48-.114.773-.257.992-.11.163-.244.29-.4.394-.234.156-.514.252-.732.3-.11.024-.2.038-.26.044l-.066.006h-.01l.014.306-.01-.305h-.004l.015.305-.01-.305.026.807v-.808H47.19v1.615h7.531c.067-.007.79-.02 1.602-.44.403-.21.833-.537 1.158-1.028.327-.49.528-1.132.525-1.884V18.66c.003-.75-.198-1.394-.525-1.883-.243-.368-.547-.645-.853-.848-.46-.306-.922-.453-1.272-.532-.35-.08-.596-.088-.634-.09h-.013l-5.018.017.002.808.025-.807-.01.357.016-.357h-.006l-.01.357.016-.357c-.005.004-.528-.038-.948-.278-.212-.12-.397-.273-.534-.488-.134-.217-.24-.505-.242-.97V6.58c.003-.48.114-.773.257-.992.11-.164.244-.29.4-.395.234-.156.514-.252.732-.3.11-.024.2-.038.26-.044l.066-.005h.01l-.013-.3.01.3h.004l-.014-.3.01.3-.026-.808v.808H57.2V3.23zM37.55 28.936V6.416c.002-.744-.2-1.382-.53-1.865-.244-.362-.55-.635-.855-.834-.46-.3-.92-.443-1.27-.52-.35-.078-.595-.087-.63-.088h-5.039c-.065.006-.786.02-1.596.43-.402.208-.832.53-1.16 1.014-.327.483-.53 1.12-.528 1.865v22.52h1.615V6.418c.003-.47.113-.75.253-.963.107-.16.243-.283.4-.386.232-.154.514-.248.733-.296.11-.024.202-.037.262-.044l.065-.006h.01l-.013-.288.01.287h.004l-.013-.286.01.287-.026-.806v.808h4.99v-.808l-.026.807.01-.355-.015.355h.004l.01-.356-.015.355c.005-.005.53.037.95.273.214.117.398.27.533.478.134.212.238.49.24.943v22.52h1.616v.003z"/><path fill="#FFF" d="M26.75 19.28h10.007v-1.616H26.75M78.684 28.936V6.416c.003-.744-.2-1.382-.53-1.865-.243-.362-.548-.635-.854-.834-.46-.3-.92-.443-1.27-.52-.35-.078-.595-.087-.63-.088H70.36c-.065.006-.786.02-1.596.43-.403.208-.833.53-1.16 1.014-.328.483-.53 1.12-.53 1.865v22.52h1.616V6.418c.003-.47.113-.75.253-.963.107-.16.243-.283.4-.386.232-.154.514-.248.733-.296.11-.024.202-.037.262-.044l.065-.006h.01l-.013-.29.01.29h.004l-.014-.29.01.29-.026-.808v.808h4.988v-.808l-.025.807.01-.352-.016.353h.005l.01-.352-.016.353c.006-.003.53.04.952.275.213.117.397.27.532.478.134.21.238.49.24.942v22.52h1.616z"/><path fill="#FFF" d="M67.884 19.28h10.008v-1.616H67.884"/><g fill="#FFF"><path d="M98.254 74.125c-1.32 0-2.043.68-2.043 2.156v4.4c0 1.49.725 2.17 2.1 2.17 1.69 0 1.845-1.065 1.93-1.746.028-.227.17-.37.468-.37.327 0 .468.115.468.583 0 1.29-1.092 2.397-2.965 2.397-1.602 0-2.936-.823-2.936-3.036V76.28c0-2.2 1.362-3.022 2.98-3.022 1.858 0 2.92 1.092 2.92 2.37 0 .467-.14.566-.467.566-.326 0-.454-.156-.468-.355-.028-.608-.298-1.715-1.986-1.715zM115.58 80.68v-4.398c0-2.2 1.29-3.022 2.95-3.022 1.66 0 2.952.823 2.952 3.022v4.398c0 2.213-1.29 3.036-2.95 3.036-1.66 0-2.952-.823-2.952-3.036zm4.966-4.398c0-1.475-.752-2.156-2.015-2.156-1.26 0-2.014.68-2.014 2.156v4.398c0 1.49.752 2.17 2.015 2.17 1.264 0 2.016-.68 2.016-2.17v-4.398zM140.44 79.743c-.114.213-.256.298-.384.298s-.255-.084-.37-.297l-2.34-4.497v8.015c0 .242-.24.37-.468.37-.24 0-.468-.128-.468-.37v-9.546c0-.34.227-.454.468-.454.34 0 .567.298.752.652l2.44 4.71 2.44-4.71c.184-.355.41-.652.752-.652.255 0 .468.113.468.454v9.547c0 .242-.227.37-.468.37-.227 0-.468-.128-.468-.37V75.29l-2.355 4.455zM158.774 73.615c0-.24.213-.355.426-.355h2.326c1.59 0 2.894.41 2.894 2.412 0 1.192-.483 2.03-1.206 2.34.865.356 1.46.994 1.46 2.44v.256c0 2.156-1.233 2.922-2.808 2.922H159.2c-.27 0-.426-.17-.426-.355v-9.66zm.922 3.986h1.858c1.305 0 1.93-.48 1.93-1.83 0-1.304-.824-1.645-1.987-1.645h-1.802V77.6zm2.057 5.165c1.234 0 1.986-.638 1.986-2.1v-.24c0-1.475-.753-2.015-1.987-2.015h-2.057v4.355h2.057zM179.292 73.6c0-.24.227-.34.468-.34.227 0 .468.1.468.34v9.662c0 .24-.24.37-.468.37-.24 0-.468-.13-.468-.37v-9.66zM200.15 83.09l-3.944-7.674v7.845c0 .242-.24.37-.468.37-.24 0-.468-.128-.468-.37v-9.646c0-.255.227-.355.468-.355.34 0 .553.297.738.65l3.83 7.548v-7.86c0-.24.227-.34.468-.34.227 0 .468.1.468.34v9.662c0 .24-.24.37-.468.37-.27 0-.482-.255-.624-.54zM217.222 78.027h2.227c.226 0 .353.198.353.425 0 .185-.1.383-.354.383h-2.228v3.93h4.54c.227 0 .354.212.354.44 0 .198-.1.425-.354.425h-5.05c-.213 0-.426-.128-.426-.37v-9.646c0-.24.213-.355.426-.355h5.05c.255 0 .354.212.354.41 0 .24-.127.454-.354.454h-4.54v3.903zM98.254 95.638c-1.32 0-2.043.68-2.043 2.156v4.398c0 1.49.725 2.17 2.1 2.17 1.69 0 1.845-1.064 1.93-1.745.028-.227.17-.37.468-.37.327 0 .468.115.468.583 0 1.29-1.092 2.397-2.965 2.397-1.602 0-2.936-.823-2.936-3.036v-4.397c0-2.2 1.362-3.022 2.98-3.022 1.858 0 2.92 1.093 2.92 2.37 0 .468-.14.567-.467.567-.326 0-.454-.156-.468-.355-.028-.608-.298-1.714-1.986-1.714zM115.58 102.192v-4.398c0-2.2 1.29-3.022 2.95-3.022 1.66 0 2.952.823 2.952 3.022v4.398c0 2.213-1.29 3.036-2.95 3.036-1.66 0-2.952-.823-2.952-3.036zm4.966-4.398c0-1.475-.752-2.156-2.015-2.156-1.26 0-2.014.68-2.014 2.156v4.398c0 1.49.752 2.17 2.015 2.17 1.264 0 2.016-.68 2.016-2.17v-4.398zM140.44 101.256c-.114.213-.256.298-.384.298s-.255-.085-.37-.298l-2.34-4.497v8.014c0 .24-.24.37-.468.37-.24 0-.468-.13-.468-.37v-9.547c0-.34.227-.454.468-.454.34 0 .567.298.752.652l2.44 4.71 2.44-4.71c.184-.355.41-.652.752-.652.255 0 .468.113.468.454v9.547c0 .24-.227.37-.468.37-.227 0-.468-.13-.468-.37V96.8l-2.355 4.456zM158.66 102.192v-4.398c0-2.2 1.29-3.022 2.95-3.022 1.66 0 2.952.823 2.952 3.022v4.398c0 2.213-1.29 3.036-2.95 3.036-1.66 0-2.952-.823-2.952-3.036zm4.966-4.398c0-1.475-.752-2.156-2.015-2.156-1.26 0-2.014.68-2.014 2.156v4.398c0 1.49.752 2.17 2.015 2.17 1.264 0 2.016-.68 2.016-2.17v-4.398zM197.696 106.334v-1.12c-1.49-.114-2.596-.952-2.596-3.023v-4.397c0-2.2 1.29-3.022 2.95-3.022 1.66 0 2.952.824 2.952 3.023v4.398c0 2.058-1.107 2.91-2.582 3.023v1.12c0 .242-.185.356-.355.356-.185 0-.37-.114-.37-.356zm2.37-8.54c0-1.475-.753-2.156-2.016-2.156-1.262 0-2.015.68-2.015 2.156v4.398c0 1.334.61 2.015 1.66 2.128v-1.05c0-.24.184-.34.37-.34.17 0 .354.098.354.34v1.05c1.034-.128 1.644-.794 1.644-2.128v-4.398zM220.91 95.113c0-.24.227-.34.468-.34.227 0 .468.1.468.34v7.08c0 2.212-1.32 3.035-2.98 3.035-1.673 0-2.978-.823-2.978-3.036v-7.08c0-.24.24-.34.468-.34.24 0 .468.1.468.34v7.08c0 1.475.766 2.17 2.043 2.17 1.276 0 2.043-.695 2.043-2.17v-7.08zM236.846 95.113c0-.24.227-.34.468-.34.227 0 .468.1.468.34v9.66c0 .242-.24.37-.468.37-.24 0-.468-.128-.468-.37v-9.66zM257.22 102.405c0-3.15-4.71-1.617-4.71-5.08 0-2.07 1.69-2.58 3.01-2.58 1.063 0 2.382.354 2.382.864 0 .184-.156.524-.41.524-.27 0-.74-.54-1.987-.54-1.05 0-2.057.384-2.057 1.646 0 2.64 4.71 1.15 4.71 5.08 0 2.014-1.248 2.92-2.993 2.92-1.816 0-2.908-1.02-2.908-1.53 0-.228.213-.526.426-.526.37 0 .653 1.177 2.426 1.177 1.317.002 2.11-.664 2.11-1.955zM273.653 99.54h2.227c.227 0 .354.197.354.424 0 .185-.1.383-.354.383h-2.227v3.93h4.54c.227 0 .354.212.354.44 0 .198-.1.425-.354.425h-5.05c-.213 0-.426-.128-.426-.37v-9.646c0-.24.213-.355.426-.355h5.05c.255 0 .354.214.354.412 0 .24-.127.454-.354.454h-4.54v3.903zM292.81 95.113c0-.185.142-.326.354-.34h2.51c1.66 0 3.065.667 3.065 2.795 0 1.76-.98 2.525-2.214 2.738l2.185 4.2c.043.056.058.127.058.184 0 .24-.27.482-.54.482-.226 0-.382-.27-.496-.496l-2.184-4.256h-1.802v4.355c0 .24-.24.37-.468.37-.24 0-.468-.13-.468-.37v-9.662zm.936.525v3.972h1.93c1.262 0 2.127-.567 2.127-2 0-1.42-.865-1.972-2.128-1.972h-1.93z"/></g></svg>