<svg xmlns="http://www.w3.org/2000/svg" width="308.844" height="64.644" viewBox="0 0 308.844 64.644"><path fill="#33636A" d="M284.792 4.025c-.626 0-1.242.042-1.846.123V28.5c1.443-.424 2.97-.653 4.552-.653 1.98 0 3.88.36 5.633 1.015 3.308-2.526 5.443-6.517 5.443-11.01 0-7.636-6.17-13.827-13.78-13.827M293.13 28.862c-2.314 1.768-5.204 2.818-8.338 2.818-.626 0-1.242-.042-1.846-.123v27.995c1.443.425 2.97.654 4.552.654 8.905 0 16.125-7.244 16.125-16.18 0-6.947-4.364-12.872-10.492-15.164"/><path fill="#043537" d="M287.5 27.847c-1.582 0-3.11.228-4.553.654v3.057c.604.08 1.22.123 1.846.123 3.134 0 6.024-1.05 8.34-2.818-1.755-.656-3.653-1.015-5.634-1.015"/><path fill="#33636A" d="M282.947 4.025H247.33v50.4c0 5.7 5.862 5.882 5.862 5.882h29.755v-.755c-6.69-1.97-11.573-8.176-11.573-15.525 0-5.756 2.996-10.81 7.51-13.68-4.655-2.22-7.873-6.98-7.873-12.494 0-7.01 5.198-12.8 11.936-13.704v-.125"/><path fill="#043537" d="M282.947 4.148c-6.738.905-11.935 6.696-11.935 13.704 0 5.515 3.217 10.275 7.872 12.495 1.25-.794 2.613-1.42 4.063-1.847V4.148M278.884 30.347c-4.513 2.868-7.51 7.922-7.51 13.68 0 7.348 4.885 13.553 11.574 15.524V31.558c-1.437-.193-2.804-.608-4.064-1.21"/><path fill="#001C1B" d="M282.947 28.5c-1.45.428-2.814 1.054-4.063 1.848 1.26.6 2.627 1.016 4.063 1.21V28.5"/><path fill="#6FBCD1" d="M116.33 4.105H93.254V54.53c0 5.703 5.768 5.884 5.768 5.884h17.305v-6.818l-4.747-3.235 3.814-5.823L97.38 17.022 116.33 4.11v-.005M126.514 60.42c.81.46 1.642.623 2.417.623.057 0 .113 0 .17-.003-1.05-.032-1.983-.353-2.586-.62m15.355-14.455l-8.17 12.478c-.618.944-1.308 1.573-2.016 1.975.45-.2.717-.37.717-.37l9.47-6.452v-7.63m-25.535-41.86l-.006.003v39L129.1 23.6 116.334 4.105"/><path fill="#00A2B7" d="M116.33 4.11L97.38 17.022l18.014 27.516.935-1.428v-39"/><path fill="#6FBCD1" d="M164.942 4.105H141.87v.004l18.946 12.91-18.012 27.518 3.813 5.824-4.747 3.235v6.818h17.305s5.768-.182 5.768-5.885V4.105"/><path fill="#00A2B7" d="M142.804 44.538l-.935 1.427v7.632l4.747-3.235-3.813-5.824"/><path fill="#6FBCD1" d="M131.684 60.42c-.603.267-1.535.588-2.585.62.055.002.11.003.167.003.775 0 1.608-.164 2.417-.624M116.33 45.964v7.63l9.467 6.453s.267.17.717.37c-.708-.402-1.398-1.03-2.016-1.975l-8.17-12.478m25.535-41.86L129.1 23.602l12.77 19.507v-39l-.007-.005"/><path fill="#00A2B7" d="M115.394 44.538l-3.813 5.824 4.75 3.235v-7.632l-.936-1.427"/><path fill="#00A2B7" d="M129.1 23.603L116.33 43.11v2.856l8.168 12.478c.618.944 1.308 1.573 2.016 1.975.603.267 1.535.588 2.585.62 1.05-.032 1.98-.353 2.584-.62.708-.403 1.398-1.032 2.016-1.976l8.17-12.478V43.11L129.1 23.603"/><path fill="#0093A3" d="M116.33 43.11l-.936 1.428.935 1.427V43.11"/><path fill="#00A2B7" d="M141.87 4.11v39l.934 1.428 18.013-27.516L141.87 4.11"/><path fill="#0093A3" d="M141.87 43.11v2.855l.934-1.427-.935-1.428"/><path fill="#FBB145" d="M180.49 43.785v10.582c0 5.71 5.874 5.893 5.874 5.893h17.62v-.08c-10.462-.792-19.33-7.293-23.493-16.395M203.984 3.88H180.49v16.474c4.166-9.102 13.032-15.603 23.493-16.394v-.08M231.788 43.785c-4.165 9.102-13.03 15.603-23.492 16.394v.08h23.492V43.785M225.915 3.88h-17.62v.08c10.463.79 19.33 7.292 23.493 16.394V9.772c0-5.71-5.873-5.893-5.873-5.893"/><path fill="#FBB145" d="M231.788 20.354v23.43c1.632-3.567 2.542-7.534 2.542-11.714s-.91-8.148-2.542-11.716m-51.297 0c-1.63 3.568-2.54 7.535-2.54 11.715s.91 8.146 2.54 11.714v-23.43M206.14 3.88c-.725 0-1.445.026-2.156.08v56.22c.71.053 1.43.08 2.156.08s1.445-.027 2.156-.08V3.96c-.71-.054-1.43-.08-2.156-.08"/><path fill="#F58824" d="M203.983 3.96c-10.462.79-19.328 7.292-23.492 16.394v23.43c4.166 9.103 13.032 15.604 23.493 16.395V3.96M208.296 3.96v56.22c10.462-.792 19.328-7.293 23.492-16.395v-23.43c-4.164-9.103-13.03-15.604-23.492-16.395"/><path fill="#FFF" d="M5.22 10.46v15.743c-.002.744.2 1.382.53 1.865.244.363.55.636.855.835.46.3.92.443 1.27.52.35.078.595.087.63.088H16.037v-1.614H8.53v.808l.026-.807-.01.348.015-.347h-.004l-.01.348.015-.347c-.005.003-.53-.04-.95-.275-.214-.117-.398-.27-.533-.478-.134-.21-.238-.49-.24-.942V10.46H5.22z"/><path fill="#FFF" d="M6.837 22.826V7.08c.003-.468.112-.75.253-.962.107-.16.243-.283.4-.386.232-.154.514-.248.733-.296.11-.023.2-.036.262-.043l.065-.006h.01l-.013-.29.01.29h.004l-.013-.29.01.29-.026-.808v.807h7.507V3.772H8.507c-.066.006-.787.02-1.597.43-.403.208-.833.53-1.16 1.014-.328.484-.53 1.12-.53 1.865v15.745h1.617zM57.024 3.722h-7.531c-.066.006-.79.02-1.6.44-.404.21-.834.536-1.16 1.027-.326.488-.527 1.13-.524 1.883v7.007c-.004.752.197 1.395.524 1.884.243.368.547.645.853.848.46.305.922.452 1.272.53.35.08.595.09.633.09h.014l5.018-.016-.003-.808-.025.807.01-.354-.016.355h.007l.01-.354-.016.355c.006-.004.53.038.95.278.21.12.396.273.533.488.135.218.24.506.243.972v7.007c-.003.48-.114.772-.257.99-.11.165-.245.29-.402.396-.233.156-.513.252-.73.3-.11.024-.202.038-.262.044l-.065.006h-.01l.015.306-.01-.305h-.005l.015.305-.01-.305.025.807v-.808h-7.506v1.615h7.531c.066-.005.79-.02 1.6-.438.404-.21.834-.537 1.16-1.028.326-.49.527-1.132.524-1.884v-7.007c.002-.752-.2-1.395-.526-1.884-.243-.37-.547-.646-.853-.85-.46-.304-.92-.45-1.27-.53-.352-.08-.597-.088-.635-.09h-.014l-5.017.017.003.808.025-.807-.01.357.017-.357h-.006l-.01.357.017-.357c-.005.004-.528-.038-.948-.278-.213-.12-.398-.273-.535-.488-.135-.217-.24-.505-.243-.97V7.073c.003-.48.114-.773.257-.992.108-.164.243-.29.4-.395.233-.156.513-.252.73-.3.11-.024.202-.038.262-.044l.065-.006h.01l-.013-.3.01.3h.004l-.014-.3.01.3-.026-.808v.807h7.506V3.722zM37.373 29.428V6.908c.003-.744-.2-1.382-.53-1.865-.243-.363-.548-.636-.854-.835-.46-.3-.92-.443-1.27-.52-.35-.078-.596-.087-.632-.088H29.05c-.064.006-.785.02-1.595.43-.403.208-.833.53-1.16 1.014-.328.483-.53 1.12-.53 1.865v22.52h1.616V6.91c.004-.47.114-.75.254-.964.107-.16.243-.283.4-.386.232-.154.514-.248.733-.296.11-.024.202-.037.262-.044l.064-.006h.01l-.013-.288.01.287h.005l-.014-.287.01.287-.025-.807v.808h4.988v-.808l-.025.807.01-.356-.015.355h.005l.01-.356-.015.355c.006-.003.53.04.952.275.213.117.397.27.532.478.134.21.238.49.24.942v22.52h1.616v.003z"/><path fill="#FFF" d="M26.573 19.77H36.58v-1.614H26.574M78.508 29.428V6.908c.003-.744-.2-1.382-.53-1.865-.243-.363-.548-.636-.854-.835-.46-.3-.92-.443-1.27-.52-.35-.078-.595-.087-.63-.088H70.185c-.065.006-.786.02-1.596.43-.403.208-.833.53-1.16 1.014-.328.483-.53 1.12-.53 1.865v22.52h1.616V6.91c.003-.47.113-.75.253-.964.106-.16.242-.283.398-.386.233-.154.515-.248.734-.296.11-.024.202-.037.262-.044l.065-.006h.01l-.014-.29.01.29h.004l-.014-.29.01.29-.026-.808v.808h4.988v-.808l-.025.807.01-.353-.015.353h.005l.01-.353-.015.353c.006-.004.53.038.952.274.213.117.397.27.532.478.134.21.238.49.24.942v22.52h1.616z"/><path fill="#FFF" d="M67.708 19.77h10.008v-1.614H67.708"/></svg>